<?xml version="1.0" standalone="no"?>
<!DOCTYPE svg PUBLIC "-//W3C//DTD SVG 1.1//EN" "http://www.w3.org/Graphics/SVG/1.1/DTD/svg11.dtd" >
<svg xmlns="http://www.w3.org/2000/svg" xmlns:xlink="http://www.w3.org/1999/xlink" version="1.1">
<metadata>
Created by FontForge 20161003 at Sat Aug 24 18:24:09 2019
 By www-data
(c) 1989, 1995, 2002 Adobe Systems Incorporated. All rights reserved.
</metadata>
<defs>
<font id="AvenirLTStdOblique" horiz-adv-x="556" >
  <font-face 
    font-family="AvenirLTStdOblique"
    font-weight="400"
    font-style="oblique"
    font-stretch="normal"
    units-per-em="1000"
    panose-1="2 11 5 3 2 2 3 2 2 4"
    ascent="756"
    descent="-244"
    x-height="468"
    cap-height="708"
    bbox="-166 -277 1057 928"
    underline-thickness="50"
    underline-position="-150"
    slope="-8"
    unicode-range="U+0020-FB02"
  />
<missing-glyph horiz-adv-x="598" 
d="M98 0v700h500v-700h-500zM348 395l170 255h-340zM378 350l170 -255v510zM178 50h340l-170 255zM148 605v-510l170 255z" />
    <glyph glyph-name="f_i" unicode="fi" horiz-adv-x="537" 
d="M372 468l-9 -66h-114l-57 -402h-78l57 402h-102l9 66h102l15 105q27 195 193 195q37 0 58 -12l-21 -70q-27 10 -51 10q-55 0 -74 -33t-30 -107l-12 -88h114zM378 0l66 468h78l-66 -468h-78zM451 651q4 23 23 40t43 17t38 -17t10 -40q-3 -25 -21.5 -41t-43.5 -16t-38.5 16
t-10.5 41z" />
    <glyph glyph-name="f_l" unicode="fl" horiz-adv-x="537" 
d="M114 0l57 402h-102l9 66h102l15 105q27 195 193 195q37 0 58 -12l-21 -70q-27 10 -51 10q-55 0 -74 -33t-30 -107l-12 -88h114l-9 -66h-114l-57 -402h-78zM378 0l106 756h78l-106 -756h-78z" />
    <glyph glyph-name=".notdef" horiz-adv-x="598" 
d="M98 0v700h500v-700h-500zM348 395l170 255h-340zM378 350l170 -255v510zM178 50h340l-170 255zM148 605v-510l170 255z" />
    <glyph glyph-name=".null" horiz-adv-x="0" 
 />
    <glyph glyph-name="nonmarkingreturn" horiz-adv-x="333" 
 />
    <glyph glyph-name="space" unicode=" " horiz-adv-x="278" 
 />
    <glyph glyph-name="exclam" unicode="!" horiz-adv-x="278" 
d="M281 708l-72 -510h-84l72 510h84zM155 114q25 0 40 -17.5t12 -42.5q-4 -24 -24.5 -42t-44.5 -18t-39.5 18t-11.5 42q3 25 23 42.5t45 17.5z" />
    <glyph glyph-name="quotedbl" unicode="&#x22;" horiz-adv-x="519" 
d="M216 468l34 240h72l-34 -240h-72zM363 468l34 240h72l-34 -240h-72z" />
    <glyph glyph-name="numbersign" unicode="#" 
d="M98 0l60 213h-98l9 66h108l42 152h-98l9 66h108l60 211h67l-60 -211h126l60 211h67l-60 -211h98l-9 -66h-107l-43 -152h98l-9 -66h-108l-60 -213h-67l60 213h-126l-60 -213h-67zM370 279l43 152h-126l-43 -152h126z" />
    <glyph glyph-name="dollar" unicode="$" 
d="M244 -83l10 71q-144 0 -201 93l79 61q17 -33 53.5 -53.5t79.5 -22.5l36 254q-190 53 -169 203q11 81 76.5 135.5t148.5 61.5l9 66h48l-9 -66q56 0 105 -21t78 -60l-75 -60q-38 63 -119 63l-35 -249q38 -12 61 -21.5t52 -27t43.5 -36.5t22.5 -49.5t3 -68.5
q-12 -86 -80.5 -141.5t-158.5 -60.5l-10 -71h-48zM313 406l33 236q-50 -9 -84 -41t-41 -79q-6 -47 17 -70.5t75 -45.5zM347 307l-34 -241q53 6 91.5 39.5t45.5 80.5q7 50 -21.5 77t-81.5 44z" />
    <glyph glyph-name="percent" unicode="%" horiz-adv-x="833" 
d="M115 545q10 73 67.5 124t131.5 51q73 0 117 -50.5t34 -124.5q-11 -73 -69 -124t-131 -51t-116.5 50.5t-33.5 124.5zM187 545q-6 -42 20.5 -72.5t67.5 -30.5t76.5 30.5t41.5 72.5q5 42 -21.5 72.5t-67.5 30.5q-42 0 -77 -30.5t-40 -72.5zM468 163q10 73 68 124t132 51
t117 -50.5t33 -124.5t-68 -124.5t-132 -50.5t-117 51t-33 124zM540 163q-6 -42 20.5 -72.5t67.5 -30.5t76.5 30.5t41.5 72.5t-21 72.5t-68 30.5t-76 -30.5t-41 -72.5zM170 0l548 740l51 -32l-548 -740z" />
    <glyph glyph-name="ampersand" unicode="&#x26;" horiz-adv-x="722" 
d="M593 0l-82 102q-53 -57 -107 -85.5t-121 -28.5q-94 0 -151.5 55t-44.5 147q19 133 186 205q-35 42 -52 79.5t-10 84.5q10 76 69 119t136 43q76 0 121 -41t34 -116q-8 -60 -55.5 -102.5t-119.5 -77.5l128 -159l117 159h95l-167 -218l139 -166h-115zM330 461l21 -26
q34 17 46 24t38 25t37.5 37.5t15.5 44.5q5 38 -18 60.5t-61 22.5q-43 0 -76 -26t-39 -69t36 -93zM468 158l-151 186q-62 -32 -100.5 -66t-45.5 -85q-8 -56 27.5 -94.5t91.5 -38.5q50 0 90 25t88 73z" />
    <glyph glyph-name="quotesingle" unicode="'" horiz-adv-x="278" 
d="M169 468l34 240h72l-34 -240h-72z" />
    <glyph glyph-name="parenleft" unicode="(" horiz-adv-x="278" 
d="M238 -118l-59 -38q-57 97 -78.5 212.5t-5.5 231.5q36 248 209 444l48 -40q-152 -176 -185 -404q-16 -117 1.5 -208.5t69.5 -197.5z" />
    <glyph glyph-name="parenright" unicode=")" horiz-adv-x="278" 
d="M121 694l59 38q57 -98 78.5 -213.5t4.5 -230.5q-35 -247 -208 -444l-48 40q153 177 184 404q17 117 -0.5 208.5t-69.5 197.5z" />
    <glyph glyph-name="asterisk" unicode="*" horiz-adv-x="444" 
d="M352 708l-21 -149l148 48l11 -58l-148 -48l73 -119l-55 -38l-72 123l-105 -123l-44 38l103 119l-134 48l27 58l136 -48l21 149h60z" />
    <glyph glyph-name="plus" unicode="+" horiz-adv-x="666" 
d="M110 270l9 66h228l32 228h66l-32 -228h228l-9 -66h-228l-32 -228h-66l32 228h-228z" />
    <glyph glyph-name="comma" unicode="," horiz-adv-x="278" 
d="M225 102l-115 -240h-77l101 240h91z" />
    <glyph glyph-name="hyphen" unicode="-" horiz-adv-x="333" 
d="M73 204l10 72h245l-10 -72h-245z" />
    <glyph glyph-name="period" unicode="." horiz-adv-x="278" 
d="M155 114q25 0 40 -17.5t12 -42.5q-4 -24 -24.5 -42t-44.5 -18t-39.5 18t-11.5 42q3 25 23 42.5t45 17.5z" />
    <glyph glyph-name="slash" unicode="/" horiz-adv-x="370" 
d="M469 726l-409 -769l-60 25l409 768z" />
    <glyph glyph-name="zero" unicode="0" 
d="M88 354q9 67 28 126t52 116t87.5 90.5t123.5 33.5q56 0 96.5 -23t61 -59t30 -86t9 -97.5t-7.5 -100.5q-10 -67 -29 -126t-52 -116t-87.5 -90.5t-123.5 -33.5q-56 0 -96.5 23t-61 59t-30 86t-8.5 98t8 100zM172 354q-5 -37 -7.5 -71t1 -77t15 -73.5t38.5 -51.5t67 -21
t73 21t53 51.5t36 73.5t23.5 76.5t12.5 71.5q40 294 -115 294q-49 0 -87 -30t-59.5 -79.5t-33 -93t-17.5 -91.5z" />
    <glyph glyph-name="one" unicode="1" 
d="M460 708l-100 -708h-84l84 600h-2l-142 -107l-41 61l212 154h73z" />
    <glyph glyph-name="two" unicode="2" 
d="M50 0l13 96l304 260q64 55 91 89.5t33 82.5q8 54 -24.5 87t-87.5 33q-53 0 -93 -30.5t-57 -82.5l-90 8q26 85 92.5 131t154.5 46q92 0 147 -50.5t42 -141.5q-7 -53 -36.5 -100.5t-56 -72.5t-79.5 -70l-247 -205v-2h361l-11 -78h-456z" />
    <glyph glyph-name="three" unicode="3" 
d="M251 336l10 72h26q162 0 179 123q7 53 -22 85t-83 32q-92 0 -141 -79l-77 31q34 58 93 89t129 31q90 0 143.5 -48.5t41.5 -136.5q-7 -55 -47.5 -100t-96.5 -62v-2q65 -11 97.5 -60.5t22.5 -117.5q-14 -97 -88.5 -151t-174.5 -54q-177 0 -207 149l89 28q10 -57 39.5 -81
t88.5 -24q61 0 108 39t56 100q10 72 -37.5 104.5t-122.5 32.5h-26z" />
    <glyph glyph-name="four" unicode="4" 
d="M519 708l-66 -468h102l-11 -78h-102l-23 -162h-84l23 162h-300l13 93l345 453h103zM369 240l52 370h-2l-278 -370h228z" />
    <glyph glyph-name="five" unicode="5" 
d="M574 708l-11 -78h-289l-30 -191q38 17 93 17q101 0 154 -66t39 -167q-14 -104 -92.5 -169.5t-183.5 -65.5q-146 0 -191 129l89 32q12 -41 43.5 -65t75.5 -24q65 0 115 45.5t60 117.5q11 76 -32 118.5t-120 42.5q-71 0 -150 -44l59 368h371z" />
    <glyph glyph-name="six" unicode="6" 
d="M494 708l-232 -295l2 -2q39 21 98 21q93 0 144.5 -62t38.5 -160q-15 -101 -90.5 -161.5t-178.5 -60.5t-161.5 60.5t-43.5 161.5q8 56 30.5 100.5t63.5 98.5l231 299h98zM329 360q-66 0 -115.5 -41.5t-58.5 -108.5q-10 -68 28 -109t103 -41t115 41.5t60 108.5
q9 68 -29 109t-103 41z" />
    <glyph glyph-name="seven" unicode="7" 
d="M580 708l-11 -78l-372 -630h-95l377 630h-342l11 78h432z" />
    <glyph glyph-name="eight" unicode="8" 
d="M151 535q12 82 76.5 133.5t151.5 51.5t137.5 -51.5t38.5 -133.5q-7 -52 -45 -97t-93 -59v-2q61 -13 92.5 -64t21.5 -118q-13 -94 -85.5 -150.5t-169.5 -56.5t-153.5 56.5t-43.5 150.5q10 68 55.5 118.5t110.5 63.5v2q-50 14 -75.5 59t-18.5 97zM235 531q-8 -51 20.5 -84
t80.5 -33t89.5 33t45.5 84q7 51 -21.5 84t-80.5 33t-89.5 -33t-44.5 -84zM164 201q-8 -62 27 -101.5t95 -39.5t107 40t55 101q9 61 -26.5 101t-95.5 40t-106.5 -40t-55.5 -101z" />
    <glyph glyph-name="nine" unicode="9" 
d="M162 0l231 295l-1 2q-39 -21 -98 -21q-93 0 -145 62t-38 160q14 101 89.5 161.5t178.5 60.5t161.5 -60.5t44.5 -161.5q-8 -57 -31 -101.5t-64 -97.5l-230 -299h-98zM327 348q65 0 114.5 41t59.5 109q10 67 -28.5 108.5t-103.5 41.5t-114.5 -41t-59.5 -109
q-10 -67 28.5 -108.5t103.5 -41.5z" />
    <glyph glyph-name="colon" unicode=":" horiz-adv-x="278" 
d="M206 480q25 0 40.5 -17.5t11.5 -42.5t-24.5 -42.5t-43.5 -17.5q-24 0 -40 18t-12 42q4 25 23.5 42.5t44.5 17.5zM155 114q25 0 40 -17.5t12 -42.5q-4 -24 -24.5 -42t-44.5 -18t-39.5 18t-11.5 42q3 25 23 42.5t45 17.5z" />
    <glyph glyph-name="semicolon" unicode=";" horiz-adv-x="278" 
d="M225 102l-115 -240h-77l101 240h91zM206 480q25 0 40.5 -17.5t11.5 -42.5t-24.5 -42.5t-43.5 -17.5q-24 0 -40 18t-12 42q4 25 23.5 42.5t44.5 17.5z" />
    <glyph glyph-name="less" unicode="&#x3c;" horiz-adv-x="666" 
d="M673 564l-9 -66l-468 -195l413 -195l-9 -66l-489 232l8 58z" />
    <glyph glyph-name="equal" unicode="=" horiz-adv-x="666" 
d="M121 348l9 66h522l-9 -66h-522zM99 192l9 66h522l-9 -66h-522z" />
    <glyph glyph-name="greater" unicode="&#x3e;" horiz-adv-x="666" 
d="M78 42l9 66l469 195l-414 195l9 66l490 -232l-8 -58z" />
    <glyph glyph-name="question" unicode="?" horiz-adv-x="482" 
d="M217 198l9 63q5 36 16 59.5t24 37t49 44.5q4 4 22.5 20t24.5 22t19.5 21t19.5 25t12.5 25t8.5 30q7 49 -17.5 79t-73.5 30t-86 -29.5t-51 -79.5l-89 10q24 80 89 125.5t148 45.5q85 0 133.5 -47t36.5 -131q-4 -32 -16 -58t-35 -52t-39 -40t-51 -43q-36 -30 -47 -49
t-17 -62l-6 -46h-84zM247 114q25 0 40 -17.5t12 -42.5q-4 -24 -24.5 -42t-44.5 -18t-39.5 18t-11.5 42q3 25 23 42.5t45 17.5z" />
    <glyph glyph-name="at" unicode="@" horiz-adv-x="800" 
d="M303 293q-6 -41 15 -68.5t59 -27.5q61 0 118 72t66 140q6 38 -14.5 66t-52.5 28q-66 0 -123.5 -69.5t-67.5 -140.5zM696 550l-123 -283q-12 -23 -17 -50q-1 -11 4 -15.5t18 -4.5q49 0 104 68.5t66 149.5q16 113 -55.5 185t-180.5 72q-129 0 -231.5 -94t-120.5 -224
q-19 -133 59.5 -225.5t203.5 -92.5q74 0 147.5 33t121.5 88h63q-59 -81 -150.5 -128t-189.5 -47q-157 0 -250 108t-71 264q22 155 146.5 263.5t279.5 108.5q140 0 226.5 -87t68.5 -219q-17 -121 -106.5 -205t-168.5 -84q-27 0 -42.5 17t-11.5 49h-2q-66 -66 -135 -66
q-63 0 -95.5 44.5t-23.5 110.5q16 110 94 196.5t179 86.5q81 0 99 -82h2l27 63h65z" />
    <glyph glyph-name="A" unicode="A" horiz-adv-x="704" 
d="M6 0l412 708h79l201 -708h-98l-48 174h-354l-97 -174h-95zM531 252l-91 348h-2l-196 -348h289z" />
    <glyph glyph-name="B" unicode="B" horiz-adv-x="630" 
d="M88 0l100 708h216q63 0 111 -15.5t78 -56t21 -102.5q-8 -60 -46.5 -101t-99.5 -59l-1 -2q68 -6 107 -55.5t29 -118.5q-8 -56 -37.5 -96.5t-74 -61.5t-92 -30.5t-100.5 -9.5h-211zM261 630l-32 -222h116q162 0 178 115q8 60 -31 83.5t-106 23.5h-125zM218 330l-35 -252
h142q70 0 125 30.5t63 92.5q7 47 -14.5 77t-56 41t-80.5 11h-144z" />
    <glyph glyph-name="C" unicode="C" horiz-adv-x="704" 
d="M743 615l-80 -53q-25 42 -69 64t-96 22q-116 0 -205 -87.5t-106 -206.5q-17 -125 46.5 -209.5t181.5 -84.5q128 0 219 99l56 -53q-109 -124 -286 -124q-153 0 -241 106t-66 266q22 158 139 265t273 107q164 0 234 -111z" />
    <glyph glyph-name="D" unicode="D" horiz-adv-x="741" 
d="M75 0l100 708h272q56 0 110.5 -19.5t103 -59t72.5 -111t11 -164.5q-11 -75 -42.5 -136.5t-73 -101t-92.5 -66.5t-98 -38.5t-91 -11.5h-272zM248 630l-78 -552h160q129 0 216.5 68.5t107.5 207.5q19 139 -49 207.5t-197 68.5h-160z" />
    <glyph glyph-name="E" unicode="E" horiz-adv-x="593" 
d="M88 0l100 708h445l-11 -78h-361l-32 -222h337l-11 -78h-337l-35 -252h379l-11 -78h-463z" />
    <glyph glyph-name="F" unicode="F" 
d="M88 0l100 708h439l-11 -78h-355l-33 -234h330l-11 -78h-330l-45 -318h-84z" />
    <glyph glyph-name="G" unicode="G" horiz-adv-x="778" 
d="M746 396l-49 -348q-129 -66 -275 -66q-166 0 -257 103t-68 269q23 164 147 268t286 104q159 0 237 -93l-72 -66q-30 39 -78.5 60t-103.5 21q-122 0 -215 -83t-111 -211t52 -211t199 -83q95 0 182 41l31 217h-163l11 78h247z" />
    <glyph glyph-name="H" unicode="H" horiz-adv-x="722" 
d="M88 0l100 708h84l-43 -300h378l43 300h84l-100 -708h-84l46 330h-378l-46 -330h-84z" />
    <glyph glyph-name="I" unicode="I" horiz-adv-x="260" 
d="M88 0l100 708h84l-100 -708h-84z" />
    <glyph glyph-name="J" unicode="J" horiz-adv-x="482" 
d="M494 708l-74 -525q-12 -82 -69.5 -141.5t-161.5 -59.5q-76 0 -120 38.5t-47 113.5l86 17q2 -43 26 -67t67 -24q117 0 139 152l70 496h84z" />
    <glyph glyph-name="K" unicode="K" horiz-adv-x="630" 
d="M88 0l100 708h84l-43 -306h12l365 306h121l-396 -323l313 -385h-123l-286 360h-12l-51 -360h-84z" />
    <glyph glyph-name="L" unicode="L" horiz-adv-x="500" 
d="M88 0l100 708h84l-89 -630h324l-11 -78h-408z" />
    <glyph glyph-name="M" unicode="M" horiz-adv-x="907" 
d="M88 0l100 708h125l162 -555h2l320 555h122l-100 -708h-84l83 594h-2l-337 -594h-51l-171 594h-2l-83 -594h-84z" />
    <glyph glyph-name="N" unicode="N" horiz-adv-x="778" 
d="M88 0l100 708h106l327 -588h2l83 588h84l-100 -708h-106l-327 588h-2l-83 -588h-84z" />
    <glyph glyph-name="O" unicode="O" horiz-adv-x="834" 
d="M414 -18q-161 0 -250.5 105.5t-66.5 266.5t142 266.5t280 105.5t251 -105.5t67 -266.5t-142.5 -266.5t-280.5 -105.5zM425 60q123 0 213.5 85t108.5 209t-49 209t-190 85t-213 -85t-108 -209t48.5 -209t189.5 -85z" />
    <glyph glyph-name="P" unicode="P" horiz-adv-x="593" 
d="M88 0l100 708h210q52 0 93 -10t73.5 -31.5t47 -60.5t6.5 -92q-8 -55 -35 -95.5t-66 -61t-78 -30t-80 -9.5h-142l-45 -318h-84zM261 630l-33 -234h142q65 0 107.5 29.5t50.5 87.5t-26 87.5t-99 29.5h-142z" />
    <glyph glyph-name="Q" unicode="Q" horiz-adv-x="834" 
d="M832 72l-10 -72h-411q-155 0 -245 104.5t-68 258.5t141 258.5t274 104.5t245 -104.5t68 -258.5q-13 -93 -71.5 -174.5t-141.5 -114.5v-2h219zM188 363q-17 -120 50 -202.5t184 -82.5t207 82.5t107 202.5t-49.5 202.5t-184.5 82.5t-207.5 -82.5t-106.5 -202.5z" />
    <glyph glyph-name="R" unicode="R" horiz-adv-x="611" 
d="M88 0l100 708h181q47 0 82 -3.5t73 -15t60.5 -32t34 -57t4.5 -87.5q-10 -76 -64 -125t-139 -62l155 -326h-103l-147 318h-108l-45 -318h-84zM261 630l-33 -234h75q32 0 49 0.5t47.5 3.5t48.5 10.5t38 20t31.5 33.5t15.5 49q7 48 -16.5 75.5t-56.5 34.5t-81 7h-118z" />
    <glyph glyph-name="S" unicode="S" 
d="M583 643l-77 -60q-32 65 -120 65q-62 0 -111 -30t-57 -89q-7 -48 21 -75.5t110 -54.5q40 -13 62.5 -22t52 -27t43.5 -37.5t22.5 -51.5t2.5 -72q-14 -100 -94.5 -153.5t-184.5 -53.5q-67 0 -122 24t-82 74l81 59q16 -38 54 -58.5t85 -20.5q59 0 111.5 33t60.5 90t-23 81.5
t-124 56.5l-18 6q-54 19 -86 39.5t-51.5 60t-11.5 95.5q14 97 92 150.5t178 53.5q127 0 186 -83z" />
    <glyph glyph-name="T" unicode="T" horiz-adv-x="574" 
d="M663 708l-11 -78h-234l-89 -630h-84l89 630h-234l11 78h552z" />
    <glyph glyph-name="U" unicode="U" horiz-adv-x="704" 
d="M719 708l-62 -438q-18 -127 -94.5 -207.5t-213.5 -80.5q-71 0 -121 23.5t-73.5 63t-33 91.5t1.5 110l62 438h84l-60 -426q-8 -43 -3 -83t19.5 -71t49 -49.5t85.5 -18.5q98 0 149.5 62.5t65.5 159.5l60 426h84z" />
    <glyph glyph-name="V" unicode="V" horiz-adv-x="611" 
d="M262 0l-171 708h95l136 -582h2l307 582h89l-377 -708h-81z" />
    <glyph glyph-name="W" unicode="W" horiz-adv-x="963" 
d="M213 0l-107 708h93l78 -588h2l257 588h94l90 -588h2l247 588h88l-308 -708h-91l-91 600h-2l-260 -600h-92z" />
    <glyph glyph-name="X" unicode="X" horiz-adv-x="630" 
d="M-3 0l310 373l-190 335h108l152 -277l228 277h105l-286 -335l209 -373h-111l-166 314l-255 -314h-104z" />
    <glyph glyph-name="Y" unicode="Y" horiz-adv-x="594" 
d="M255 0l43 305l-207 403h107l154 -320l250 320h101l-321 -403l-43 -305h-84z" />
    <glyph glyph-name="Z" unicode="Z" horiz-adv-x="574" 
d="M29 0l11 75l487 555h-403l11 78h505l-11 -72l-487 -558h414l-11 -78h-516z" />
    <glyph glyph-name="bracketleft" unicode="[" horiz-adv-x="259" 
d="M296 732l-9 -60h-93l-107 -768h93l-9 -60h-165l125 888h165z" />
    <glyph glyph-name="backslash" unicode="\" horiz-adv-x="370" 
d="M298 -43l-193 769l66 24l193 -768z" />
    <glyph glyph-name="bracketright" unicode="]" horiz-adv-x="259" 
d="M160 672l9 60h165l-125 -888h-165l9 60h93l107 768h-93z" />
    <glyph glyph-name="asciicircum" unicode="^" horiz-adv-x="666" 
d="M119 275l284 433h60l162 -433h-74l-130 349l-228 -349h-74z" />
    <glyph glyph-name="underscore" unicode="_" horiz-adv-x="500" 
d="M-18 -125l7 50h500l-7 -50h-500z" />
    <glyph glyph-name="grave" unicode="`" horiz-adv-x="240" 
d="M185 708l83 -144h-71l-122 144h110z" />
    <glyph glyph-name="a" unicode="a" horiz-adv-x="519" 
d="M167 357l-42 51q81 72 196 72q102 0 142.5 -49t26.5 -149l-29 -201q-5 -48 -4 -81h-75q-2 22 5 70h-2q-65 -82 -166 -82q-75 0 -119 36.5t-35 102.5q5 37 22.5 65.5t45 46t56 28.5t66.5 16t65.5 6.5t62.5 1.5h30l2 14q7 50 -20 76.5t-82 26.5q-83 0 -146 -51zM404 225
h-78q-163 0 -176 -90q-6 -42 19.5 -61.5t72.5 -19.5q65 0 106 40.5t51 100.5z" />
    <glyph glyph-name="b" unicode="b" horiz-adv-x="611" 
d="M70 0l106 756h78l-50 -356h2q80 80 179 80q109 0 168 -69.5t44 -176.5q-15 -105 -92.5 -175.5t-176.5 -70.5q-61 0 -105.5 27t-60.5 68h-2l-12 -83h-78zM181 234q-11 -75 28 -124.5t113 -49.5t127 49.5t64 124.5t-28 124.5t-114 49.5q-74 0 -126.5 -49.5t-63.5 -124.5z
" />
    <glyph glyph-name="c" unicode="c" horiz-adv-x="482" 
d="M526 406l-70 -55q-38 57 -110 57q-76 0 -124 -49t-58 -125q-11 -73 26 -123.5t107 -50.5q77 0 128 58l50 -55q-75 -75 -188 -75q-108 0 -165 68.5t-42 177.5q15 107 92 176.5t184 69.5q112 0 170 -74z" />
    <glyph glyph-name="d" unicode="d" horiz-adv-x="611" 
d="M463 0l12 83h-2q-29 -42 -81 -68.5t-113 -26.5q-99 0 -156.5 70.5t-42.5 175.5q15 107 93 176.5t187 69.5q99 0 157 -80h2l50 356h78l-106 -756h-78zM496 234q11 75 -28 124.5t-114 49.5q-74 0 -126.5 -49.5t-63.5 -124.5t28 -124.5t113 -49.5t127 49.5t64 124.5z" />
    <glyph glyph-name="e" unicode="e" 
d="M451 131l53 -46q-89 -97 -222 -97q-107 0 -162 70.5t-40 175.5q15 108 92.5 177t181.5 69q101 0 152.5 -65t35.5 -180l-3 -25h-378q-5 -62 32 -106t99 -44q94 0 159 71zM170 276h294q6 60 -26.5 96t-96.5 36t-109.5 -36t-61.5 -96z" />
    <glyph glyph-name="f" unicode="f" horiz-adv-x="315" 
d="M114 0l57 402h-102l9 66h102l15 105q27 195 193 195q37 0 58 -12l-21 -70q-27 10 -51 10q-55 0 -74 -33t-30 -107l-12 -88h114l-9 -66h-114l-57 -402h-78z" />
    <glyph glyph-name="g" unicode="g" horiz-adv-x="611" 
d="M607 468l-63 -447q-18 -127 -93.5 -194t-198.5 -67q-139 0 -217 89l65 64q63 -81 162 -81q177 0 204 189l8 60h-2q-32 -43 -80 -65t-97 -22q-110 0 -170 68t-45 172q16 114 93 180t190 66q50 0 93.5 -24t59.5 -68h2l11 80h78zM164 234q-10 -71 31 -119.5t110 -48.5
q77 0 129.5 49.5t61.5 120.5q11 76 -29 124t-114 48q-73 0 -125.5 -49.5t-63.5 -124.5z" />
    <glyph glyph-name="h" unicode="h" 
d="M74 0l106 756h78l-49 -353h2q22 31 65.5 54t94.5 23q89 0 126.5 -51.5t25.5 -139.5l-41 -289h-78l39 281q8 60 -14 93.5t-75 33.5q-73 0 -115.5 -48t-54.5 -132l-32 -228h-78z" />
    <glyph glyph-name="i" unicode="i" horiz-adv-x="240" 
d="M81 0l66 468h78l-66 -468h-78zM154 651q4 23 23 40t43 17t38 -17t10 -40q-3 -25 -21.5 -41t-43.5 -16t-38.5 16t-10.5 41z" />
    <glyph glyph-name="j" unicode="j" horiz-adv-x="240" 
d="M225 468l-81 -573q-3 -21 -12 -42t-26 -43t-48 -36t-72 -14q-32 0 -52 10l18 68q19 -6 37 -6q41 0 58.5 26t23.5 73l76 537h78zM154 651q4 23 23 40t43 17t38 -17t10 -40q-3 -25 -21.5 -41t-43.5 -16t-38.5 16t-10.5 41z" />
    <glyph glyph-name="k" unicode="k" horiz-adv-x="500" 
d="M74 0l106 756h78l-69 -494l242 206h111l-256 -213l213 -255h-115l-197 246l-35 -246h-78z" />
    <glyph glyph-name="l" unicode="l" horiz-adv-x="240" 
d="M81 0l106 756h78l-106 -756h-78z" />
    <glyph glyph-name="m" unicode="m" horiz-adv-x="852" 
d="M74 0l50 357q3 21 6 58t6 53h74q-2 -13 -4.5 -38.5t-4.5 -38.5h2q22 37 67.5 63t100.5 26q36 0 62 -8.5t40.5 -24.5t21 -28t12.5 -28q68 89 160 89q96 0 130 -50t21 -146l-40 -284h-78l39 280q18 128 -96 128q-51 0 -91 -38t-49 -100l-38 -270h-78l37 265q11 77 -5.5 110
t-64.5 33q-73 0 -115.5 -48t-54.5 -132l-32 -228h-78z" />
    <glyph glyph-name="n" unicode="n" 
d="M74 0l50 357q3 21 6 58t6 53h74q-2 -13 -4.5 -38.5t-4.5 -38.5h2q22 37 67.5 63t100.5 26q89 0 126.5 -51.5t25.5 -139.5l-41 -289h-78l39 281q8 60 -14 93.5t-75 33.5q-73 0 -115.5 -48t-54.5 -132l-32 -228h-78z" />
    <glyph glyph-name="o" unicode="o" horiz-adv-x="594" 
d="M80 234q15 109 95 177.5t189 68.5t170 -68.5t46 -177.5q-16 -109 -96 -177.5t-189 -68.5t-170 68.5t-45 177.5zM164 234q-11 -75 28 -124.5t113 -49.5t127 49.5t64 124.5t-28 124.5t-114 49.5q-74 0 -126.5 -49.5t-63.5 -124.5z" />
    <glyph glyph-name="p" unicode="p" horiz-adv-x="611" 
d="M38 -228l98 696h78l-10 -68h2q80 80 179 80q109 0 168 -69.5t44 -176.5q-15 -105 -92.5 -175.5t-176.5 -70.5q-61 0 -105.5 27t-60.5 68h-2l-44 -311h-78zM181 234q-11 -75 28 -124.5t113 -49.5t127 49.5t64 124.5t-28 124.5t-114 49.5q-74 0 -126.5 -49.5t-63.5 -124.5z
" />
    <glyph glyph-name="q" unicode="q" horiz-adv-x="611" 
d="M607 468l-98 -696h-78l42 296h-2q-80 -80 -180 -80q-109 0 -167.5 69.5t-43.5 176.5q15 105 92 175.5t176 70.5q61 0 106 -27t61 -68h2l12 83h78zM496 234q11 75 -28 124.5t-114 49.5q-74 0 -126.5 -49.5t-63.5 -124.5t28 -124.5t113 -49.5t127 49.5t64 124.5z" />
    <glyph glyph-name="r" unicode="r" horiz-adv-x="352" 
d="M74 0l50 357q3 21 6 58t6 53h74q-2 -13 -4.5 -38.5t-4.5 -38.5h2q22 37 67.5 63t100.5 26q18 0 32 -5l-16 -79q-19 6 -41 6q-69 0 -109.5 -45.5t-52.5 -128.5l-32 -228h-78z" />
    <glyph glyph-name="s" unicode="s" horiz-adv-x="426" 
d="M33 75l68 48q43 -63 111 -63q41 0 74.5 18t39.5 54q3 18 -3.5 31t-22 21t-28.5 12.5t-36 9.5q-33 8 -50.5 13t-41 15.5t-34.5 23.5t-17.5 34.5t-2.5 49.5q9 65 66.5 101.5t127.5 36.5q114 0 148 -85l-72 -43q-25 56 -91 56q-36 0 -66.5 -17t-34.5 -48q-3 -27 26 -42
t83 -26q70 -14 106 -44.5t27 -95.5q-10 -74 -70 -110.5t-138 -36.5q-62 0 -102.5 19.5t-66.5 67.5z" />
    <glyph glyph-name="t" unicode="t" horiz-adv-x="352" 
d="M396 468l-9 -66h-138l-33 -234q-4 -31 -5.5 -55t12.5 -38.5t47 -14.5q39 0 72 16l-7 -71q-41 -17 -94 -17q-77 0 -97.5 38t-9.5 119l37 257h-102l9 66h102l18 133h78l-18 -133h138z" />
    <glyph glyph-name="u" unicode="u" 
d="M548 468l-50 -357q-3 -24 -6.5 -61.5t-5.5 -49.5h-74q2 13 4.5 38.5t4.5 38.5h-2q-23 -37 -68.5 -63t-100.5 -26q-89 0 -126.5 51.5t-24.5 139.5l41 289h78l-40 -281q-8 -60 14 -93.5t75 -33.5q73 0 116 48t55 132l32 228h78z" />
    <glyph glyph-name="v" unicode="v" horiz-adv-x="482" 
d="M538 468l-251 -468h-86l-125 468h91l94 -367h2l191 367h84z" />
    <glyph glyph-name="w" unicode="w" horiz-adv-x="741" 
d="M793 468l-217 -468h-77l-82 360h-2l-169 -360h-80l-86 468h86l56 -360h2l172 360h82l72 -360h2l157 360h84z" />
    <glyph glyph-name="x" unicode="x" horiz-adv-x="500" 
d="M3 0l227 252l-137 216h102l100 -168l141 168h95l-192 -216l158 -252h-103l-120 202l-174 -202h-97z" />
    <glyph glyph-name="y" unicode="y" horiz-adv-x="482" 
d="M538 468l-307 -575q-36 -69 -73 -101t-102 -32q-44 0 -68 12l20 68q20 -8 53 -8q35 0 57 19t41 58l45 88l-128 471h91l93 -367h2l191 367h85z" />
    <glyph glyph-name="z" unicode="z" horiz-adv-x="444" 
d="M30 0l9 61l323 341h-263l9 66h365l-9 -60l-323 -342h282l-9 -66h-384z" />
    <glyph glyph-name="braceleft" unicode="{" horiz-adv-x="333" 
d="M397 732l-9 -60h-54q-48 0 -60 -79l-24 -176q-5 -31 -18.5 -56.5t-30.5 -39.5t-30.5 -21.5t-24.5 -10.5l-1 -2q28 -4 52.5 -34t15.5 -95l-24 -175q-12 -79 38 -79h54l-9 -60h-70q-41 0 -68 34t-19 91l24 175q7 51 -14.5 82.5t-55.5 31.5l9 60q33 0 64 31.5t38 81.5
l24 176q8 57 46 91t77 34h70z" />
    <glyph glyph-name="bar" unicode="|" horiz-adv-x="368" 
d="M202 832h65v-1109h-65v1109z" />
    <glyph glyph-name="braceright" unicode="}" horiz-adv-x="333" 
d="M133 672l9 60h70q39 0 67 -34t20 -91l-24 -176q-7 -49 15 -81t55 -32l-9 -60q-34 0 -64.5 -31.5t-37.5 -82.5l-24 -175q-8 -57 -45 -91t-78 -34h-70l9 60h54q48 0 60 79l24 175q9 64 42.5 94.5t61.5 34.5l1 2q-28 7 -52 38t-16 90l24 176q12 79 -38 79h-54z" />
    <glyph glyph-name="asciitilde" unicode="~" horiz-adv-x="666" 
d="M582 372l27 -48q-25 -29 -40 -43.5t-42.5 -29.5t-56.5 -15q-36 0 -98 30q-4 2 -24.5 12.5t-28.5 13.5t-24.5 7.5t-31.5 4.5q-52 0 -94 -70l-26 48q25 29 39 43.5t41.5 29.5t56.5 15q36 0 98 -30q4 -2 24.5 -12.5t28.5 -13.5t24.5 -7.5t31.5 -4.5q51 0 95 70z" />
    <glyph glyph-name="uni00A0" unicode="&#xa0;" horiz-adv-x="278" 
 />
    <glyph glyph-name="exclamdown" unicode="&#xa1;" horiz-adv-x="278" 
d="M66 -222l71 510h84l-71 -510h-84zM191 372q-25 0 -40 17.5t-11 42.5q3 24 23.5 42t44.5 18t39.5 -18t12.5 -42q-4 -25 -24 -42.5t-45 -17.5z" />
    <glyph glyph-name="cent" unicode="&#xa2;" 
d="M286 61l48 345q-62 -12 -101.5 -59t-48.5 -113q-9 -64 18.5 -112t83.5 -61zM266 -78l9 66q-93 12 -141 79t-34 167q14 99 81 166.5t163 76.5l10 69h48l-10 -66q101 -5 154 -74l-70 -55q-35 51 -94 57l-49 -348q66 4 112 58l50 -55q-68 -68 -172 -75l-9 -66h-48z" />
    <glyph glyph-name="sterling" unicode="&#xa3;" 
d="M57 0l11 78h108l35 252h-96l10 66h96l11 80q17 124 84 184t164 60q100 0 152 -62l-63 -59q-44 49 -101 49q-70 0 -105.5 -45t-46.5 -129l-11 -78h162l-10 -66h-162l-35 -252h246l-11 -78h-438z" />
    <glyph glyph-name="currency" unicode="&#xa4;" 
d="M156 354q-10 -70 33.5 -124t113.5 -54t128.5 54t68.5 124q10 73 -33.5 125.5t-113.5 52.5q-71 0 -129 -52.5t-68 -125.5zM49 148l62 55q-45 68 -33 151q12 88 75 152l-46 54l50 44l46 -53q76 53 160 53q83 0 144 -53l62 53l38 -44l-62 -54q45 -65 33 -152
q-12 -84 -75 -151l46 -55l-50 -44l-47 55q-78 -55 -159 -55q-80 0 -145 55l-61 -55z" />
    <glyph glyph-name="yen" unicode="&#xa5;" 
d="M236 0l24 174h-159l9 60h159l10 71l-7 16h-150l9 60h114l-145 327h100l132 -327l224 327h100l-237 -327h114l-9 -60h-150l-11 -16l-10 -71h159l-9 -60h-159l-24 -174h-84z" />
    <glyph glyph-name="brokenbar" unicode="&#xa6;" horiz-adv-x="367" 
d="M202 749h64v-388h-64v388zM202 194h64v-387h-64v387z" />
    <glyph glyph-name="section" unicode="&#xa7;" 
d="M552 632l-81 -41q-7 31 -33 47t-61 16q-43 0 -77 -22t-40 -64q-7 -49 34 -72l91 -49q31 -16 50 -28t42 -32.5t32 -46.5t5 -58q-13 -85 -105 -133q63 -45 52 -123q-12 -81 -78.5 -125.5t-149.5 -44.5q-68 0 -116.5 31t-63.5 92l82 36q14 -87 114 -87q46 0 80.5 23t40.5 69
q3 25 -9.5 44.5t-28.5 30t-39 21.5q-6 3 -9 4l-113 64q-67 37 -56 122q13 91 121 140q-71 43 -61 118q11 76 74 119t141 43q57 0 101.5 -23.5t60.5 -70.5zM268 226l83 -43q28 11 50.5 35.5t26.5 51.5q3 20 -3 36.5t-21 30t-27 21.5t-31 18l-54 29q-28 -11 -43.5 -18.5
t-33 -25.5t-20.5 -42q-5 -35 15 -54.5t58 -38.5z" />
    <glyph glyph-name="dieresis" unicode="&#xa8;" horiz-adv-x="240" 
d="M117 684q22 0 36 -16t11 -38q-4 -23 -22 -38.5t-40 -15.5q-23 0 -36.5 16t-9.5 38q3 22 21 38t40 16zM315 684q22 0 36 -16t11 -38q-4 -23 -22 -38.5t-40 -15.5q-23 0 -36.5 16t-9.5 38q3 22 21 38t40 16z" />
    <glyph glyph-name="copyright" unicode="&#xa9;" horiz-adv-x="800" 
d="M578 282h62q-26 -72 -82 -114t-125 -42q-100 0 -152 64.5t-38 163.5q14 101 82 164t169 63q73 0 118.5 -39.5t46.5 -111.5h-61q-2 42 -32.5 69.5t-78.5 27.5q-72 0 -119.5 -48.5t-58.5 -124.5q-10 -72 26 -123t105 -51q49 0 86.5 29t51.5 73zM78 354q15 104 77.5 189.5
t154.5 134t192 48.5q153 0 247.5 -107.5t72.5 -264.5t-147 -264.5t-278 -107.5q-154 0 -247.5 107.5t-71.5 264.5zM144 354q-19 -135 56.5 -226.5t204.5 -91.5q128 0 230 91.5t121 226.5q19 134 -57.5 226t-204.5 92q-129 0 -230 -91.5t-120 -226.5z" />
    <glyph glyph-name="ordfeminine" unicode="&#xaa;" horiz-adv-x="337" 
d="M384 601l-18 -128q-1 -7 -1.5 -21.5t-0.5 -21.5h-61q2 28 4 45h-2q-32 -51 -107 -51q-48 0 -73.5 22.5t-19.5 65.5q5 33 25.5 54t54.5 29t58 10t59 2h23l2 14q3 16 -14.5 30.5t-51.5 14.5q-28 0 -54.5 -9.5t-39.5 -21.5l-25 42q52 43 126 43q70 0 97.5 -29.5t18.5 -89.5z
M319 559h-48q-93 0 -100 -46q-2 -16 12.5 -25.5t39.5 -9.5q38 0 64 20t29 44z" />
    <glyph glyph-name="guillemotleft" unicode="&#xab;" horiz-adv-x="500" 
d="M315 418l-142 -178l92 -178l-60 -36l-113 214l173 214zM501 418l-142 -178l92 -178l-60 -36l-113 214l173 214z" />
    <glyph glyph-name="logicalnot" unicode="&#xac;" horiz-adv-x="666" 
d="M121 348l9 66h522l-39 -278h-66l30 212h-456z" />
    <glyph glyph-name="uni00AD" unicode="&#xad;" horiz-adv-x="333" 
d="M73 204l10 72h245l-10 -72h-245z" />
    <glyph glyph-name="registered" unicode="&#xae;" horiz-adv-x="800" 
d="M277 137l61 435h164q77 0 110.5 -31t24.5 -93q-15 -107 -132 -119l98 -192h-71l-91 187h-71l-27 -187h-66zM397 518l-20 -140h68q37 0 58.5 3t42.5 20t25 50q6 40 -19 53.5t-68 13.5h-87zM78 354q15 104 77.5 189.5t154.5 134t192 48.5q153 0 247.5 -107.5t72.5 -264.5
t-147 -264.5t-278 -107.5q-154 0 -247.5 107.5t-71.5 264.5zM144 354q-19 -135 56.5 -226.5t204.5 -91.5q128 0 230 91.5t121 226.5q19 134 -57.5 226t-204.5 92q-129 0 -230 -91.5t-120 -226.5z" />
    <glyph glyph-name="macron" unicode="&#xaf;" horiz-adv-x="240" 
d="M351 660l-9 -60h-276l9 60h276z" />
    <glyph glyph-name="degree" unicode="&#xb0;" horiz-adv-x="400" 
d="M138 577q8 60 55.5 101.5t107.5 41.5t95.5 -41.5t27.5 -101.5t-55.5 -101.5t-107.5 -41.5t-95.5 41.5t-27.5 101.5zM192 577q-5 -33 17 -61t60 -28t67 28t34 61t-16.5 61t-59.5 28t-67.5 -28t-34.5 -61z" />
    <glyph glyph-name="plusminus" unicode="&#xb1;" horiz-adv-x="666" 
d="M118 330l10 66h228l23 168h66l-23 -168h228l-10 -66h-228l-23 -168h-66l23 168h-228zM78 42l9 66h522l-9 -66h-522z" />
    <glyph glyph-name="twosuperior" unicode="&#xb2;" horiz-adv-x="361" 
d="M73 289l8 58l189 151q36 29 52.5 48.5t20.5 48.5q4 32 -14 51.5t-48 19.5q-32 0 -57.5 -18t-35.5 -49l-62 5q17 58 59.5 87t100.5 29q61 0 96.5 -32t26.5 -93q-5 -32 -23 -60.5t-36 -44t-51 -41.5l-135 -104v-2h213l-7 -54h-297z" />
    <glyph glyph-name="threesuperior" unicode="&#xb3;" horiz-adv-x="361" 
d="M208 484l8 54h17q92 0 101 69q4 30 -13 44.5t-49 14.5q-61 0 -87 -42l-52 25q45 71 146 71q58 0 93.5 -29.5t28.5 -81.5q-5 -33 -31 -60t-62 -37v-2q42 -6 63 -35.5t16 -70.5q-8 -57 -56 -89t-113 -32q-118 0 -134 92l57 23q5 -24 26 -42.5t58 -18.5q36 0 64 18.5
t32 51.5q6 43 -23 60t-74 17h-16z" />
    <glyph glyph-name="acute" unicode="&#xb4;" horiz-adv-x="240" 
d="M130 564l125 144h110l-164 -144h-71z" />
    <glyph glyph-name="mu" unicode="&#xb5;" 
d="M548 468l-50 -357q-3 -24 -6.5 -61.5t-5.5 -49.5h-74q2 13 4.5 38.5t4.5 38.5h-2q-23 -37 -68.5 -63t-100.5 -26q-57 0 -96 25l-34 -241h-78l98 696h78l-40 -281q-8 -60 14 -93.5t75 -33.5q73 0 116 48t55 132l32 228h78z" />
    <glyph glyph-name="paragraph" unicode="&#xb6;" horiz-adv-x="600" 
d="M274 -126l62 442q-91 0 -142 53.5t-40 132.5q13 97 82 151.5t175 54.5h243l-118 -834h-72l108 768h-118l-108 -768h-72z" />
    <glyph glyph-name="periodcentered" unicode="&#xb7;" horiz-adv-x="278" 
d="M191 369q25 0 40 -17.5t11 -42.5q-3 -24 -23.5 -42t-44.5 -18t-39.5 18t-12.5 42q4 25 24 42.5t45 17.5z" />
    <glyph glyph-name="cedilla" unicode="&#xb8;" horiz-adv-x="240" 
d="M158 0l-54 -64q3 0 9.5 1.5t13 2t13.5 0.5q30 0 52.5 -18t17.5 -51q-6 -44 -44 -66t-85 -22q-55 0 -97 21l23 37q32 -16 69 -16q24 0 44 9.5t23 31.5q3 19 -11.5 28.5t-34.5 9.5q-15 0 -41 -8l-17 19l74 85h45z" />
    <glyph glyph-name="onesuperior" unicode="&#xb9;" horiz-adv-x="361" 
d="M214 289l49 352h-2l-90 -66l-27 46l137 93h58l-59 -425h-66z" />
    <glyph glyph-name="ordmasculine" unicode="&#xba;" horiz-adv-x="386" 
d="M111 573q9 65 60.5 106t122.5 41t111.5 -41t31.5 -106q-10 -67 -61.5 -108t-122.5 -41t-111.5 41t-30.5 108zM177 573q-5 -39 17.5 -67t65.5 -28t74.5 28.5t36.5 66.5q5 37 -18 65t-66 28t-74 -28t-36 -65z" />
    <glyph glyph-name="guillemotright" unicode="&#xbb;" horiz-adv-x="500" 
d="M67 62l142 178l-92 178l60 36l113 -214l-173 -214zM253 62l142 178l-92 178l60 36l113 -214l-173 -214z" />
    <glyph glyph-name="onequarter" unicode="&#xbc;" horiz-adv-x="834" 
d="M799 425l-40 -281h56l-7 -54h-56l-13 -90h-66l13 90h-195l9 63l221 272h78zM149 0l548 740l51 -32l-548 -740zM693 144l29 203h-2l-162 -203h135zM196 289l49 353h-2l-90 -67l-27 46l137 93h58l-59 -425h-66z" />
    <glyph glyph-name="onehalf" unicode="&#xbd;" horiz-adv-x="834" 
d="M132 0l548 740l51 -32l-548 -740zM190 289l49 353h-2l-90 -67l-27 46l137 93h58l-59 -425h-66zM504 0l8 58l189 151q36 29 52.5 48.5t20.5 48.5q4 32 -14 51.5t-48 19.5q-32 0 -57 -18t-35 -49l-63 5q17 58 60 87t101 29q61 0 96 -32t26 -93q-5 -32 -23 -60.5t-36 -44
t-51 -41.5l-134 -104v-2h213l-8 -54h-297z" />
    <glyph glyph-name="threequarters" unicode="&#xbe;" horiz-adv-x="834" 
d="M813 425l-40 -281h56l-7 -54h-56l-13 -90h-66l13 90h-195l9 63l221 272h78zM188 0l548 740l51 -32l-548 -740zM707 144l29 203h-2l-161 -201l-1 -2h135zM203 484l8 54h16q93 0 102 69q4 30 -13 44.5t-49 14.5q-61 0 -87 -42l-52 25q45 71 146 71q58 0 93.5 -29.5
t28.5 -81.5q-5 -33 -31 -60t-62 -37v-2q42 -6 63 -35.5t16 -70.5q-8 -57 -56 -89t-113 -32q-117 0 -135 92l58 23q5 -24 26 -42.5t58 -18.5q36 0 64 18.5t32 51.5q6 43 -23 60t-74 17h-16z" />
    <glyph glyph-name="questiondown" unicode="&#xbf;" horiz-adv-x="482" 
d="M357 -59l88 -10q-24 -80 -89 -125.5t-148 -45.5q-85 0 -133.5 47t-36.5 131q5 31 16.5 57.5t35.5 52.5t39 40t50 43q36 30 47 49t17 62l6 46h84l-8 -63q-8 -52 -23.5 -74.5t-65.5 -66.5q-4 -3 -20 -17t-21 -19l-17.5 -17.5t-18 -20.5t-13 -20t-11.5 -24t-6 -25
q-7 -49 17 -79t73 -30q50 0 87 30t51 79zM303 372q-25 0 -40 17.5t-11 42.5q3 24 23.5 42t44.5 18t39.5 -18t12.5 -42q-4 -25 -24 -42.5t-45 -17.5z" />
    <glyph glyph-name="Agrave" unicode="&#xc0;" horiz-adv-x="704" 
d="M6 0l412 708h79l201 -708h-98l-48 174h-354l-97 -174h-95zM531 252l-91 348h-2l-196 -348h289zM444 902l84 -144h-71l-123 144h110z" />
    <glyph glyph-name="Aacute" unicode="&#xc1;" horiz-adv-x="704" 
d="M6 0l412 708h79l201 -708h-98l-48 174h-354l-97 -174h-95zM531 252l-91 348h-2l-196 -348h289zM390 758l124 144h110l-163 -144h-71z" />
    <glyph glyph-name="Acircumflex" unicode="&#xc2;" horiz-adv-x="704" 
d="M6 0l412 708h79l201 -708h-98l-48 174h-354l-97 -174h-95zM531 252l-91 348h-2l-196 -348h289zM302 758l131 144h91l92 -144h-81l-65 102l-92 -102h-76z" />
    <glyph glyph-name="Atilde" unicode="&#xc3;" horiz-adv-x="704" 
d="M6 0l412 708h79l201 -708h-98l-48 174h-354l-97 -174h-95zM531 252l-91 348h-2l-196 -348h289zM341 770h-48q13 43 43.5 73.5t71.5 30.5q27 0 81 -23q38 -17 51 -17q36 0 54 44h48q-31 -104 -107 -104q-30 0 -78 21q-45 19 -64 19q-34 0 -52 -44z" />
    <glyph glyph-name="Adieresis" unicode="&#xc4;" horiz-adv-x="704" 
d="M6 0l412 708h79l201 -708h-98l-48 174h-354l-97 -174h-95zM531 252l-91 348h-2l-196 -348h289zM376 878q22 0 36 -16t11 -38t-21 -38t-41 -16q-22 0 -35.5 15.5t-10.5 38.5q3 22 21 38t40 16zM574 878q22 0 36 -16t11 -38t-21 -38t-41 -16q-22 0 -35.5 15.5t-10.5 38.5
q3 22 21 38t40 16z" />
    <glyph glyph-name="Aring" unicode="&#xc5;" horiz-adv-x="704" 
d="M6 0l412 708h79l201 -708h-98l-48 174h-354l-97 -174h-95zM531 252l-91 348h-2l-196 -348h289zM370 829q5 40 37.5 69.5t74.5 29.5q43 0 67 -29t19 -70q-6 -41 -38.5 -70t-74.5 -29t-66.5 29t-18.5 70zM412 829q-4 -24 11 -40.5t38 -16.5q22 0 41.5 16.5t23.5 40.5
q3 24 -12 40.5t-37 16.5t-42 -17t-23 -40z" />
    <glyph glyph-name="AE" unicode="&#xc6;" horiz-adv-x="944" 
d="M-10 0l560 708h435l-11 -78h-294l-32 -222h276l-11 -78h-276l-35 -252h306l-11 -78h-390l27 192h-293l-150 -192h-101zM545 270l51 360h-12l-282 -360h243z" />
    <glyph glyph-name="Ccedilla" unicode="&#xc7;" horiz-adv-x="704" 
d="M743 615l-80 -53q-25 42 -69 64t-96 22q-116 0 -205 -87.5t-106 -206.5q-17 -125 46.5 -209.5t181.5 -84.5q128 0 219 99l56 -53q-109 -124 -286 -124l-38 -46l36 4q30 0 52.5 -18t17.5 -51q-6 -44 -44 -66t-85 -22q-55 0 -97 21l23 37q32 -16 69 -16q24 0 44 9.5
t23 31.5q3 19 -11.5 28.5t-34.5 9.5q-15 0 -41 -8l-17 19l61 70q-135 14 -210.5 117t-54.5 252q22 158 139 265t273 107q164 0 234 -111z" />
    <glyph glyph-name="Egrave" unicode="&#xc8;" horiz-adv-x="593" 
d="M88 0l100 708h445l-11 -78h-361l-32 -222h337l-11 -78h-337l-35 -252h379l-11 -78h-463zM389 902l84 -144h-71l-123 144h110z" />
    <glyph glyph-name="Eacute" unicode="&#xc9;" horiz-adv-x="593" 
d="M88 0l100 708h445l-11 -78h-361l-32 -222h337l-11 -78h-337l-35 -252h379l-11 -78h-463zM335 758l124 144h110l-163 -144h-71z" />
    <glyph glyph-name="Ecircumflex" unicode="&#xca;" horiz-adv-x="593" 
d="M88 0l100 708h445l-11 -78h-361l-32 -222h337l-11 -78h-337l-35 -252h379l-11 -78h-463zM247 758l131 144h91l92 -144h-81l-65 102l-92 -102h-76z" />
    <glyph glyph-name="Edieresis" unicode="&#xcb;" horiz-adv-x="593" 
d="M88 0l100 708h445l-11 -78h-361l-32 -222h337l-11 -78h-337l-35 -252h379l-11 -78h-463zM321 878q22 0 36 -16t11 -38t-21 -38t-41 -16q-22 0 -35.5 15.5t-10.5 38.5q3 22 21 38t40 16zM519 878q22 0 36 -16t11 -38t-21 -38t-41 -16q-22 0 -35.5 15.5t-10.5 38.5
q3 22 21 38t40 16z" />
    <glyph glyph-name="Igrave" unicode="&#xcc;" horiz-adv-x="260" 
d="M88 0l100 708h84l-100 -708h-84zM222 902l84 -144h-71l-123 144h110z" />
    <glyph glyph-name="Iacute" unicode="&#xcd;" horiz-adv-x="260" 
d="M88 0l100 708h84l-100 -708h-84zM168 758l124 144h110l-163 -144h-71z" />
    <glyph glyph-name="Icircumflex" unicode="&#xce;" horiz-adv-x="260" 
d="M88 0l100 708h84l-100 -708h-84zM80 758l131 144h91l92 -144h-81l-65 102l-92 -102h-76z" />
    <glyph glyph-name="Idieresis" unicode="&#xcf;" horiz-adv-x="260" 
d="M88 0l100 708h84l-100 -708h-84zM154 878q22 0 36 -16t11 -38t-21 -38t-41 -16q-22 0 -35.5 15.5t-10.5 38.5q3 22 21 38t40 16zM352 878q22 0 36 -16t11 -38t-21 -38t-41 -16q-22 0 -35.5 15.5t-10.5 38.5q3 22 21 38t40 16z" />
    <glyph glyph-name="Eth" unicode="&#xd0;" horiz-adv-x="741" 
d="M132 402l43 306h272q56 0 110.5 -19.5t103 -59t72.5 -111t11 -164.5q-11 -75 -42.5 -136.5t-73 -101t-92.5 -66.5t-98 -38.5t-91 -11.5h-272l47 336h-72l10 66h72zM248 630l-32 -228h252l-10 -66h-252l-36 -258h160q129 0 216.5 68.5t107.5 207.5q19 139 -49 207.5
t-197 68.5h-160z" />
    <glyph glyph-name="Ntilde" unicode="&#xd1;" horiz-adv-x="778" 
d="M88 0l100 708h106l327 -588h2l83 588h84l-100 -708h-106l-327 588h-2l-83 -588h-84zM378 770h-48q13 43 43.5 73.5t71.5 30.5q27 0 81 -23q38 -17 51 -17q36 0 54 44h48q-31 -104 -107 -104q-30 0 -78 21q-45 19 -64 19q-34 0 -52 -44z" />
    <glyph glyph-name="Ograve" unicode="&#xd2;" horiz-adv-x="834" 
d="M414 -18q-161 0 -250.5 105.5t-66.5 266.5t142 266.5t280 105.5t251 -105.5t67 -266.5t-142.5 -266.5t-280.5 -105.5zM425 60q123 0 213.5 85t108.5 209t-49 209t-190 85t-213 -85t-108 -209t48.5 -209t189.5 -85zM509 902l84 -144h-71l-123 144h110z" />
    <glyph glyph-name="Oacute" unicode="&#xd3;" horiz-adv-x="834" 
d="M414 -18q-161 0 -250.5 105.5t-66.5 266.5t142 266.5t280 105.5t251 -105.5t67 -266.5t-142.5 -266.5t-280.5 -105.5zM425 60q123 0 213.5 85t108.5 209t-49 209t-190 85t-213 -85t-108 -209t48.5 -209t189.5 -85zM455 758l124 144h110l-163 -144h-71z" />
    <glyph glyph-name="Ocircumflex" unicode="&#xd4;" horiz-adv-x="834" 
d="M414 -18q-161 0 -250.5 105.5t-66.5 266.5t142 266.5t280 105.5t251 -105.5t67 -266.5t-142.5 -266.5t-280.5 -105.5zM425 60q123 0 213.5 85t108.5 209t-49 209t-190 85t-213 -85t-108 -209t48.5 -209t189.5 -85zM367 758l131 144h91l92 -144h-81l-65 102l-92 -102h-76z
" />
    <glyph glyph-name="Otilde" unicode="&#xd5;" horiz-adv-x="834" 
d="M414 -18q-161 0 -250.5 105.5t-66.5 266.5t142 266.5t280 105.5t251 -105.5t67 -266.5t-142.5 -266.5t-280.5 -105.5zM425 60q123 0 213.5 85t108.5 209t-49 209t-190 85t-213 -85t-108 -209t48.5 -209t189.5 -85zM406 770h-48q13 43 43.5 73.5t71.5 30.5q27 0 81 -23
q38 -17 51 -17q36 0 54 44h48q-31 -104 -107 -104q-30 0 -78 21q-45 19 -64 19q-34 0 -52 -44z" />
    <glyph glyph-name="Odieresis" unicode="&#xd6;" horiz-adv-x="834" 
d="M414 -18q-161 0 -250.5 105.5t-66.5 266.5t142 266.5t280 105.5t251 -105.5t67 -266.5t-142.5 -266.5t-280.5 -105.5zM425 60q123 0 213.5 85t108.5 209t-49 209t-190 85t-213 -85t-108 -209t48.5 -209t189.5 -85zM441 878q22 0 36 -16t11 -38t-21 -38t-41 -16
q-22 0 -35.5 15.5t-10.5 38.5q3 22 21 38t40 16zM639 878q22 0 36 -16t11 -38t-21 -38t-41 -16q-22 0 -35.5 15.5t-10.5 38.5q3 22 21 38t40 16z" />
    <glyph glyph-name="multiply" unicode="&#xd7;" horiz-adv-x="666" 
d="M217 544l165 -193l220 193l42 -47l-221 -194l167 -192l-55 -49l-166 194l-220 -194l-42 47l221 194l-166 192z" />
    <glyph glyph-name="Oslash" unicode="&#xd8;" horiz-adv-x="834" 
d="M707 550l-451 -426q66 -64 169 -64q123 0 213.5 85t108.5 209q15 116 -40 196zM223 164l450 425q-65 59 -165 59q-123 0 -213 -85t-108 -209q-17 -110 36 -190zM62 11l93 88q-79 102 -58 255q23 161 142 266.5t280 105.5q131 0 219 -75l92 87l36 -38l-91 -86
q83 -104 62 -260q-23 -161 -142.5 -266.5t-280.5 -105.5q-137 0 -224 79l-94 -88z" />
    <glyph glyph-name="Ugrave" unicode="&#xd9;" horiz-adv-x="704" 
d="M719 708l-62 -438q-18 -127 -94.5 -207.5t-213.5 -80.5q-71 0 -121 23.5t-73.5 63t-33 91.5t1.5 110l62 438h84l-60 -426q-8 -43 -3 -83t19.5 -71t49 -49.5t85.5 -18.5q98 0 149.5 62.5t65.5 159.5l60 426h84zM444 902l84 -144h-71l-123 144h110z" />
    <glyph glyph-name="Uacute" unicode="&#xda;" horiz-adv-x="704" 
d="M719 708l-62 -438q-18 -127 -94.5 -207.5t-213.5 -80.5q-71 0 -121 23.5t-73.5 63t-33 91.5t1.5 110l62 438h84l-60 -426q-8 -43 -3 -83t19.5 -71t49 -49.5t85.5 -18.5q98 0 149.5 62.5t65.5 159.5l60 426h84zM390 758l124 144h110l-163 -144h-71z" />
    <glyph glyph-name="Ucircumflex" unicode="&#xdb;" horiz-adv-x="704" 
d="M719 708l-62 -438q-18 -127 -94.5 -207.5t-213.5 -80.5q-71 0 -121 23.5t-73.5 63t-33 91.5t1.5 110l62 438h84l-60 -426q-8 -43 -3 -83t19.5 -71t49 -49.5t85.5 -18.5q98 0 149.5 62.5t65.5 159.5l60 426h84zM302 758l131 144h91l92 -144h-81l-65 102l-92 -102h-76z" />
    <glyph glyph-name="Udieresis" unicode="&#xdc;" horiz-adv-x="704" 
d="M719 708l-62 -438q-18 -127 -94.5 -207.5t-213.5 -80.5q-71 0 -121 23.5t-73.5 63t-33 91.5t1.5 110l62 438h84l-60 -426q-8 -43 -3 -83t19.5 -71t49 -49.5t85.5 -18.5q98 0 149.5 62.5t65.5 159.5l60 426h84zM376 878q22 0 36 -16t11 -38t-21 -38t-41 -16
q-22 0 -35.5 15.5t-10.5 38.5q3 22 21 38t40 16zM574 878q22 0 36 -16t11 -38t-21 -38t-41 -16q-22 0 -35.5 15.5t-10.5 38.5q3 22 21 38t40 16z" />
    <glyph glyph-name="Yacute" unicode="&#xdd;" horiz-adv-x="594" 
d="M255 0l43 305l-207 403h107l154 -320l250 320h101l-321 -403l-43 -305h-84zM335 758l124 144h110l-163 -144h-71z" />
    <glyph glyph-name="Thorn" unicode="&#xde;" horiz-adv-x="593" 
d="M88 0l100 708h84l-18 -125h126q109 0 172 -45.5t49 -148.5q-8 -55 -35 -95.5t-66 -61t-78.5 -30t-80.5 -9.5h-142l-27 -193h-84zM243 505l-33 -234h142q65 0 107.5 29.5t51.5 87.5q8 57 -26.5 87t-99.5 30h-142z" />
    <glyph glyph-name="germandbls" unicode="&#xdf;" horiz-adv-x="593" 
d="M74 0l76 540q14 100 77 164t174 64q85 0 134 -47.5t37 -130.5q-8 -57 -42.5 -98t-89.5 -60l-1 -2q79 -8 116 -68t25 -144q-15 -104 -91.5 -167t-180.5 -63q-36 0 -60 9l10 71q21 -8 50 -8q75 0 126.5 45.5t62.5 119.5q11 79 -31.5 124.5t-121.5 45.5h-23l9 66h22
q55 0 94 32.5t47 87.5q7 53 -23 84t-83 31q-137 0 -160 -163l-75 -533h-78z" />
    <glyph glyph-name="agrave" unicode="&#xe0;" horiz-adv-x="519" 
d="M167 357l-42 51q81 72 196 72q102 0 142.5 -49t26.5 -149l-29 -201q-5 -48 -4 -81h-75q-2 22 5 70h-2q-65 -82 -166 -82q-75 0 -119 36.5t-35 102.5q5 37 22.5 65.5t45 46t56 28.5t66.5 16t65.5 6.5t62.5 1.5h30l2 14q7 50 -20 76.5t-82 26.5q-83 0 -146 -51zM404 225
h-78q-163 0 -176 -90q-6 -42 19.5 -61.5t72.5 -19.5q65 0 106 40.5t51 100.5zM327 724l84 -144h-71l-123 144h110z" />
    <glyph glyph-name="aacute" unicode="&#xe1;" horiz-adv-x="519" 
d="M167 357l-42 51q81 72 196 72q102 0 142.5 -49t26.5 -149l-29 -201q-5 -48 -4 -81h-75q-2 22 5 70h-2q-65 -82 -166 -82q-75 0 -119 36.5t-35 102.5q5 37 22.5 65.5t45 46t56 28.5t66.5 16t65.5 6.5t62.5 1.5h30l2 14q7 50 -20 76.5t-82 26.5q-83 0 -146 -51zM404 225
h-78q-163 0 -176 -90q-6 -42 19.5 -61.5t72.5 -19.5q65 0 106 40.5t51 100.5zM273 580l124 144h110l-163 -144h-71z" />
    <glyph glyph-name="acircumflex" unicode="&#xe2;" horiz-adv-x="519" 
d="M167 357l-42 51q81 72 196 72q102 0 142.5 -49t26.5 -149l-29 -201q-5 -48 -4 -81h-75q-2 22 5 70h-2q-65 -82 -166 -82q-75 0 -119 36.5t-35 102.5q5 37 22.5 65.5t45 46t56 28.5t66.5 16t65.5 6.5t62.5 1.5h30l2 14q7 50 -20 76.5t-82 26.5q-83 0 -146 -51zM404 225
h-78q-163 0 -176 -90q-6 -42 19.5 -61.5t72.5 -19.5q65 0 106 40.5t51 100.5zM185 580l131 144h91l92 -144h-81l-65 102l-92 -102h-76z" />
    <glyph glyph-name="atilde" unicode="&#xe3;" horiz-adv-x="519" 
d="M167 357l-42 51q81 72 196 72q102 0 142.5 -49t26.5 -149l-29 -201q-5 -48 -4 -81h-75q-2 22 5 70h-2q-65 -82 -166 -82q-75 0 -119 36.5t-35 102.5q5 37 22.5 65.5t45 46t56 28.5t66.5 16t65.5 6.5t62.5 1.5h30l2 14q7 50 -20 76.5t-82 26.5q-83 0 -146 -51zM404 225
h-78q-163 0 -176 -90q-6 -42 19.5 -61.5t72.5 -19.5q65 0 106 40.5t51 100.5zM224 592h-48q13 43 43.5 73.5t71.5 30.5q27 0 81 -23q38 -17 51 -17q36 0 54 44h48q-31 -104 -107 -104q-30 0 -78 21q-45 19 -64 19q-34 0 -52 -44z" />
    <glyph glyph-name="adieresis" unicode="&#xe4;" horiz-adv-x="519" 
d="M167 357l-42 51q81 72 196 72q102 0 142.5 -49t26.5 -149l-29 -201q-5 -48 -4 -81h-75q-2 22 5 70h-2q-65 -82 -166 -82q-75 0 -119 36.5t-35 102.5q5 37 22.5 65.5t45 46t56 28.5t66.5 16t65.5 6.5t62.5 1.5h30l2 14q7 50 -20 76.5t-82 26.5q-83 0 -146 -51zM404 225
h-78q-163 0 -176 -90q-6 -42 19.5 -61.5t72.5 -19.5q65 0 106 40.5t51 100.5zM259 700q22 0 36 -16t11 -38t-21 -38t-41 -16q-22 0 -35.5 15.5t-10.5 38.5q3 22 21 38t40 16zM457 700q22 0 36 -16t11 -38t-21 -38t-41 -16q-22 0 -35.5 15.5t-10.5 38.5q3 22 21 38t40 16z
" />
    <glyph glyph-name="aring" unicode="&#xe5;" horiz-adv-x="519" 
d="M167 357l-42 51q81 72 196 72q102 0 142.5 -49t26.5 -149l-29 -201q-5 -48 -4 -81h-75q-2 22 5 70h-2q-65 -82 -166 -82q-75 0 -119 36.5t-35 102.5q5 37 22.5 65.5t45 46t56 28.5t66.5 16t65.5 6.5t62.5 1.5h30l2 14q7 50 -20 76.5t-82 26.5q-83 0 -146 -51zM404 225
h-78q-163 0 -176 -90q-6 -42 19.5 -61.5t72.5 -19.5q65 0 106 40.5t51 100.5zM254 661q5 40 38 69.5t75 29.5q43 0 66.5 -29t18.5 -70q-6 -41 -38.5 -70t-74.5 -29t-66.5 29t-18.5 70zM296 661q-4 -24 11 -40.5t38 -16.5q22 0 41.5 16.5t23.5 40.5q3 24 -12 40.5t-37 16.5
t-42 -17t-23 -40z" />
    <glyph glyph-name="ae" unicode="&#xe6;" horiz-adv-x="852" 
d="M752 131l53 -46q-89 -97 -222 -97q-63 0 -105.5 30t-57.5 71q-66 -101 -202 -101q-69 0 -116 35.5t-37 105.5q21 147 255 147h96l1 12q8 53 -17.5 86.5t-82.5 33.5q-75 0 -143 -46l-43 52q85 66 196 66q116 0 151 -79q86 79 177 79q101 0 152.5 -65t35.5 -180l-3 -25
h-361q-8 -62 24 -106t90 -44q94 0 159 71zM407 210h-117q-52 0 -93.5 -18t-46.5 -60q-6 -37 23.5 -54.5t74.5 -17.5q61 0 104.5 38t52.5 99zM488 276h277q6 60 -26.5 96t-96.5 36q-56 0 -100.5 -40.5t-53.5 -91.5z" />
    <glyph glyph-name="ccedilla" unicode="&#xe7;" horiz-adv-x="482" 
d="M526 406l-70 -55q-38 57 -110 57q-76 0 -124 -49t-58 -125q-11 -73 26 -123.5t107 -50.5q77 0 128 58l50 -55q-71 -70 -169 -73l-46 -54l36 4q30 0 52.5 -18t17.5 -51q-6 -44 -44 -66t-85 -22q-55 0 -97 21l23 37q32 -16 69 -16q24 0 44 9.5t23 31.5q3 19 -11.5 28.5
t-34.5 9.5q-15 0 -41 -8l-17 19l66 76q-96 7 -145.5 74t-35.5 169q15 107 92 176.5t184 69.5q112 0 170 -74z" />
    <glyph glyph-name="egrave" unicode="&#xe8;" 
d="M451 131l53 -46q-89 -97 -222 -97q-107 0 -162 70.5t-40 175.5q15 108 92.5 177t181.5 69q101 0 152.5 -65t35.5 -180l-3 -25h-378q-5 -62 32 -106t99 -44q94 0 159 71zM170 276h294q6 60 -26.5 96t-96.5 36t-109.5 -36t-61.5 -96zM345 724l84 -144h-71l-123 144h110z
" />
    <glyph glyph-name="eacute" unicode="&#xe9;" 
d="M451 131l53 -46q-89 -97 -222 -97q-107 0 -162 70.5t-40 175.5q15 108 92.5 177t181.5 69q101 0 152.5 -65t35.5 -180l-3 -25h-378q-5 -62 32 -106t99 -44q94 0 159 71zM170 276h294q6 60 -26.5 96t-96.5 36t-109.5 -36t-61.5 -96zM291 580l124 144h110l-163 -144h-71z
" />
    <glyph glyph-name="ecircumflex" unicode="&#xea;" 
d="M451 131l53 -46q-89 -97 -222 -97q-107 0 -162 70.5t-40 175.5q15 108 92.5 177t181.5 69q101 0 152.5 -65t35.5 -180l-3 -25h-378q-5 -62 32 -106t99 -44q94 0 159 71zM170 276h294q6 60 -26.5 96t-96.5 36t-109.5 -36t-61.5 -96zM203 580l131 144h91l92 -144h-81
l-65 102l-92 -102h-76z" />
    <glyph glyph-name="edieresis" unicode="&#xeb;" 
d="M451 131l53 -46q-89 -97 -222 -97q-107 0 -162 70.5t-40 175.5q15 108 92.5 177t181.5 69q101 0 152.5 -65t35.5 -180l-3 -25h-378q-5 -62 32 -106t99 -44q94 0 159 71zM170 276h294q6 60 -26.5 96t-96.5 36t-109.5 -36t-61.5 -96zM277 700q22 0 36 -16t11 -38t-21 -38
t-41 -16q-22 0 -35.5 15.5t-10.5 38.5q3 22 21 38t40 16zM475 700q22 0 36 -16t11 -38t-21 -38t-41 -16q-22 0 -35.5 15.5t-10.5 38.5q3 22 21 38t40 16z" />
    <glyph glyph-name="igrave" unicode="&#xec;" horiz-adv-x="240" 
d="M81 0l66 468h78l-66 -468h-78zM187 724l84 -144h-71l-123 144h110z" />
    <glyph glyph-name="iacute" unicode="&#xed;" horiz-adv-x="240" 
d="M81 0l66 468h78l-66 -468h-78zM133 580l124 144h110l-163 -144h-71z" />
    <glyph glyph-name="icircumflex" unicode="&#xee;" horiz-adv-x="240" 
d="M81 0l66 468h78l-66 -468h-78zM45 580l131 144h91l92 -144h-81l-65 102l-92 -102h-76z" />
    <glyph glyph-name="idieresis" unicode="&#xef;" horiz-adv-x="240" 
d="M81 0l66 468h78l-66 -468h-78zM119 700q22 0 36 -16t11 -38t-21 -38t-41 -16q-22 0 -35.5 15.5t-10.5 38.5q3 22 21 38t40 16zM317 700q22 0 36 -16t11 -38t-21 -38t-41 -16q-22 0 -35.5 15.5t-10.5 38.5q3 22 21 38t40 16z" />
    <glyph glyph-name="eth" unicode="&#xf0;" horiz-adv-x="594" 
d="M214 610l113 53q-32 36 -77 76l74 40q50 -46 80 -80l115 54l40 -39l-119 -56q82 -89 121.5 -180.5t22.5 -212.5q-18 -126 -92.5 -201.5t-196.5 -75.5q-109 0 -170 68.5t-45 177.5q15 109 95 177.5t189 68.5q81 0 124 -49l1 2q-32 81 -124 190l-115 -54zM164 234
q-11 -75 28 -124.5t113 -49.5t127 49.5t64 124.5t-28 124.5t-114 49.5q-74 0 -126.5 -49.5t-63.5 -124.5z" />
    <glyph glyph-name="ntilde" unicode="&#xf1;" 
d="M74 0l50 357q3 21 6 58t6 53h74q-2 -13 -4.5 -38.5t-4.5 -38.5h2q22 37 67.5 63t100.5 26q89 0 126.5 -51.5t25.5 -139.5l-41 -289h-78l39 281q8 60 -14 93.5t-75 33.5q-73 0 -115.5 -48t-54.5 -132l-32 -228h-78zM242 592h-48q13 43 43.5 73.5t71.5 30.5q27 0 81 -23
q38 -17 51 -17q36 0 54 44h48q-31 -104 -107 -104q-30 0 -78 21q-45 19 -64 19q-34 0 -52 -44z" />
    <glyph glyph-name="ograve" unicode="&#xf2;" horiz-adv-x="594" 
d="M80 234q15 109 95 177.5t189 68.5t170 -68.5t46 -177.5q-16 -109 -96 -177.5t-189 -68.5t-170 68.5t-45 177.5zM164 234q-11 -75 28 -124.5t113 -49.5t127 49.5t64 124.5t-28 124.5t-114 49.5q-74 0 -126.5 -49.5t-63.5 -124.5zM364 724l84 -144h-71l-123 144h110z" />
    <glyph glyph-name="oacute" unicode="&#xf3;" horiz-adv-x="594" 
d="M80 234q15 109 95 177.5t189 68.5t170 -68.5t46 -177.5q-16 -109 -96 -177.5t-189 -68.5t-170 68.5t-45 177.5zM164 234q-11 -75 28 -124.5t113 -49.5t127 49.5t64 124.5t-28 124.5t-114 49.5q-74 0 -126.5 -49.5t-63.5 -124.5zM310 580l124 144h110l-163 -144h-71z" />
    <glyph glyph-name="ocircumflex" unicode="&#xf4;" horiz-adv-x="594" 
d="M80 234q15 109 95 177.5t189 68.5t170 -68.5t46 -177.5q-16 -109 -96 -177.5t-189 -68.5t-170 68.5t-45 177.5zM164 234q-11 -75 28 -124.5t113 -49.5t127 49.5t64 124.5t-28 124.5t-114 49.5q-74 0 -126.5 -49.5t-63.5 -124.5zM222 580l131 144h91l92 -144h-81l-65 102
l-92 -102h-76z" />
    <glyph glyph-name="otilde" unicode="&#xf5;" horiz-adv-x="594" 
d="M80 234q15 109 95 177.5t189 68.5t170 -68.5t46 -177.5q-16 -109 -96 -177.5t-189 -68.5t-170 68.5t-45 177.5zM164 234q-11 -75 28 -124.5t113 -49.5t127 49.5t64 124.5t-28 124.5t-114 49.5q-74 0 -126.5 -49.5t-63.5 -124.5zM261 592h-48q13 43 43.5 73.5t71.5 30.5
q27 0 81 -23q38 -17 51 -17q36 0 54 44h48q-31 -104 -107 -104q-30 0 -78 21q-45 19 -64 19q-34 0 -52 -44z" />
    <glyph glyph-name="odieresis" unicode="&#xf6;" horiz-adv-x="594" 
d="M80 234q15 109 95 177.5t189 68.5t170 -68.5t46 -177.5q-16 -109 -96 -177.5t-189 -68.5t-170 68.5t-45 177.5zM164 234q-11 -75 28 -124.5t113 -49.5t127 49.5t64 124.5t-28 124.5t-114 49.5q-74 0 -126.5 -49.5t-63.5 -124.5zM296 700q22 0 36 -16t11 -38t-21 -38
t-41 -16q-22 0 -35.5 15.5t-10.5 38.5q3 22 21 38t40 16zM494 700q22 0 36 -16t11 -38t-21 -38t-41 -16q-22 0 -35.5 15.5t-10.5 38.5q3 22 21 38t40 16z" />
    <glyph glyph-name="divide" unicode="&#xf7;" horiz-adv-x="666" 
d="M110 270l9 66h522l-9 -66h-522zM342 468q3 24 22 40.5t43 16.5q23 0 37.5 -17t11.5 -40q-4 -24 -23 -40.5t-42 -16.5t-38 17t-11 40zM295 138q4 24 23 40.5t42 16.5t38 -17t11 -40q-3 -24 -22 -40.5t-43 -16.5q-23 0 -37.5 17t-11.5 40z" />
    <glyph glyph-name="oslash" unicode="&#xf8;" horiz-adv-x="594" 
d="M180 130l273 243q-37 35 -99 35q-74 0 -126.5 -49.5t-63.5 -124.5q-9 -60 16 -104zM480 338l-274 -243q37 -35 99 -35q74 0 127 49.5t64 124.5q9 60 -16 104zM37 2l78 70q-49 64 -35 162q15 109 95 177.5t189 68.5q93 0 152 -51l77 69l29 -32l-76 -69q47 -66 34 -163
q-16 -109 -96 -177.5t-189 -68.5q-93 0 -150 52l-78 -70z" />
    <glyph glyph-name="ugrave" unicode="&#xf9;" 
d="M548 468l-50 -357q-3 -24 -6.5 -61.5t-5.5 -49.5h-74q2 13 4.5 38.5t4.5 38.5h-2q-23 -37 -68.5 -63t-100.5 -26q-89 0 -126.5 51.5t-24.5 139.5l41 289h78l-40 -281q-8 -60 14 -93.5t75 -33.5q73 0 116 48t55 132l32 228h78zM345 724l84 -144h-71l-123 144h110z" />
    <glyph glyph-name="uacute" unicode="&#xfa;" 
d="M548 468l-50 -357q-3 -24 -6.5 -61.5t-5.5 -49.5h-74q2 13 4.5 38.5t4.5 38.5h-2q-23 -37 -68.5 -63t-100.5 -26q-89 0 -126.5 51.5t-24.5 139.5l41 289h78l-40 -281q-8 -60 14 -93.5t75 -33.5q73 0 116 48t55 132l32 228h78zM291 580l124 144h110l-163 -144h-71z" />
    <glyph glyph-name="ucircumflex" unicode="&#xfb;" 
d="M548 468l-50 -357q-3 -24 -6.5 -61.5t-5.5 -49.5h-74q2 13 4.5 38.5t4.5 38.5h-2q-23 -37 -68.5 -63t-100.5 -26q-89 0 -126.5 51.5t-24.5 139.5l41 289h78l-40 -281q-8 -60 14 -93.5t75 -33.5q73 0 116 48t55 132l32 228h78zM203 580l131 144h91l92 -144h-81l-65 102
l-92 -102h-76z" />
    <glyph glyph-name="udieresis" unicode="&#xfc;" 
d="M548 468l-50 -357q-3 -24 -6.5 -61.5t-5.5 -49.5h-74q2 13 4.5 38.5t4.5 38.5h-2q-23 -37 -68.5 -63t-100.5 -26q-89 0 -126.5 51.5t-24.5 139.5l41 289h78l-40 -281q-8 -60 14 -93.5t75 -33.5q73 0 116 48t55 132l32 228h78zM277 700q22 0 36 -16t11 -38t-21 -38
t-41 -16q-22 0 -35.5 15.5t-10.5 38.5q3 22 21 38t40 16zM475 700q22 0 36 -16t11 -38t-21 -38t-41 -16q-22 0 -35.5 15.5t-10.5 38.5q3 22 21 38t40 16z" />
    <glyph glyph-name="yacute" unicode="&#xfd;" horiz-adv-x="482" 
d="M538 468l-307 -575q-36 -69 -73 -101t-102 -32q-44 0 -68 12l20 68q20 -8 53 -8q35 0 57 19t41 58l45 88l-128 471h91l93 -367h2l191 367h85zM254 580l124 144h110l-163 -144h-71z" />
    <glyph glyph-name="thorn" unicode="&#xfe;" horiz-adv-x="611" 
d="M38 -228l138 984h78l-50 -356h2q80 80 179 80q109 0 168 -69.5t44 -176.5q-15 -105 -92.5 -175.5t-176.5 -70.5q-61 0 -105.5 27t-60.5 68h-2l-44 -311h-78zM181 234q-11 -75 28 -124.5t113 -49.5t127 49.5t64 124.5t-28 124.5t-114 49.5q-74 0 -126.5 -49.5
t-63.5 -124.5z" />
    <glyph glyph-name="ydieresis" unicode="&#xff;" horiz-adv-x="482" 
d="M538 468l-307 -575q-36 -69 -73 -101t-102 -32q-44 0 -68 12l20 68q20 -8 53 -8q35 0 57 19t41 58l45 88l-128 471h91l93 -367h2l191 367h85zM240 700q22 0 36 -16t11 -38t-21 -38t-41 -16q-22 0 -35.5 15.5t-10.5 38.5q3 22 21 38t40 16zM438 700q22 0 36 -16t11 -38
t-21 -38t-41 -16q-22 0 -35.5 15.5t-10.5 38.5q3 22 21 38t40 16z" />
    <glyph glyph-name="dotlessi" unicode="&#x131;" horiz-adv-x="240" 
d="M81 0l66 468h78l-66 -468h-78z" />
    <glyph glyph-name="Lslash" unicode="&#x141;" horiz-adv-x="500" 
d="M88 0l31 221l-87 -67l11 79l87 67l58 408h84l-48 -336l242 186l-11 -79l-242 -186l-30 -215h324l-11 -78h-408z" />
    <glyph glyph-name="lslash" unicode="&#x142;" horiz-adv-x="240" 
d="M81 0l43 308l-92 -81l11 82l93 81l51 366h78l-40 -288l92 81l-11 -81l-93 -81l-54 -387h-78z" />
    <glyph glyph-name="OE" unicode="&#x152;" horiz-adv-x="963" 
d="M691 630l-32 -222h282l-11 -78h-282l-35 -252h306l-11 -78h-460q-94 0 -166.5 29.5t-113 79t-57 112.5t-6.5 133q21 147 139 250.5t304 103.5h454l-11 -78h-300zM529 78l78 552h-66q-149 0 -239.5 -82t-106.5 -194q-6 -42 0 -81t25.5 -74.5t51 -62.5t80.5 -42.5
t111 -15.5h66z" />
    <glyph glyph-name="oe" unicode="&#x153;" horiz-adv-x="907" 
d="M901 210h-361q-8 -62 24 -106t90 -44q94 0 159 71l53 -46q-89 -97 -222 -97q-116 0 -160 96q-86 -96 -206 -96q-111 0 -168 67.5t-41 178.5q15 107 92 176.5t183 69.5q124 0 182 -94q86 94 190 94q101 0 152.5 -65t35.5 -180zM153 234q-10 -72 23.5 -123t107.5 -51
q77 0 126.5 49.5t60.5 124.5q10 73 -24.5 123.5t-109.5 50.5q-76 0 -125 -49.5t-59 -124.5zM549 276h277q6 60 -26.5 96t-96.5 36q-56 0 -100.5 -40.5t-53.5 -91.5z" />
    <glyph glyph-name="Scaron" unicode="&#x160;" 
d="M583 643l-77 -60q-32 65 -120 65q-62 0 -111 -30t-57 -89q-7 -48 21 -75.5t110 -54.5q40 -13 62.5 -22t52 -27t43.5 -37.5t22.5 -51.5t2.5 -72q-14 -100 -94.5 -153.5t-184.5 -53.5q-67 0 -122 24t-82 74l81 59q16 -38 54 -58.5t85 -20.5q59 0 111.5 33t60.5 90t-23 81.5
t-124 56.5l-18 6q-54 19 -86 39.5t-51.5 60t-11.5 95.5q14 97 92 150.5t178 53.5q127 0 186 -83zM561 902l-130 -144h-91l-91 144h81l63 -102l92 102h76z" />
    <glyph glyph-name="scaron" unicode="&#x161;" horiz-adv-x="426" 
d="M33 75l68 48q43 -63 111 -63q41 0 74.5 18t39.5 54q3 18 -3.5 31t-22 21t-28.5 12.5t-36 9.5q-33 8 -50.5 13t-41 15.5t-34.5 23.5t-17.5 34.5t-2.5 49.5q9 65 66.5 101.5t127.5 36.5q114 0 148 -85l-72 -43q-25 56 -91 56q-36 0 -66.5 -17t-34.5 -48q-3 -27 26 -42
t83 -26q70 -14 106 -44.5t27 -95.5q-10 -74 -70 -110.5t-138 -36.5q-62 0 -102.5 19.5t-66.5 67.5zM471 724l-130 -144h-91l-91 144h81l63 -102l92 102h76z" />
    <glyph glyph-name="Ydieresis" unicode="&#x178;" horiz-adv-x="594" 
d="M255 0l43 305l-207 403h107l154 -320l250 320h101l-321 -403l-43 -305h-84zM321 878q22 0 36 -16t11 -38t-21 -38t-41 -16q-22 0 -35.5 15.5t-10.5 38.5q3 22 21 38t40 16zM519 878q22 0 36 -16t11 -38t-21 -38t-41 -16q-22 0 -35.5 15.5t-10.5 38.5q3 22 21 38t40 16z
" />
    <glyph glyph-name="Zcaron" unicode="&#x17d;" horiz-adv-x="574" 
d="M29 0l11 75l487 555h-403l11 78h505l-11 -72l-487 -558h414l-11 -78h-516zM570 902l-130 -144h-91l-91 144h81l63 -102l92 102h76z" />
    <glyph glyph-name="zcaron" unicode="&#x17e;" horiz-adv-x="444" 
d="M30 0l9 61l323 341h-263l9 66h365l-9 -60l-323 -342h282l-9 -66h-384zM480 724l-130 -144h-91l-91 144h81l63 -102l92 102h76z" />
    <glyph glyph-name="florin" unicode="&#x192;" 
d="M491 425l-10 -66h-126l-113 -344q-26 -77 -68.5 -118t-117.5 -41q-48 0 -83 24l45 63q21 -15 50 -15q18 0 33.5 7t24.5 16t18 26t12.5 27.5t10.5 30.5l105 324h-108l10 66h121l36 110q14 42 27.5 70.5t35.5 57t54 43t73 14.5q54 0 96 -28l-45 -62q-29 18 -55 18
q-23 0 -40.5 -9.5t-30 -29t-19 -34.5t-14.5 -40l-36 -110h114z" />
    <glyph glyph-name="circumflex" unicode="&#x2c6;" horiz-adv-x="240" 
d="M42 564l132 144h91l91 -144h-81l-64 102l-93 -102h-76z" />
    <glyph glyph-name="caron" unicode="&#x2c7;" horiz-adv-x="240" 
d="M376 708l-131 -144h-91l-90 144h81l63 -102l92 102h76z" />
    <glyph glyph-name="uni02C9" unicode="&#x2c9;" horiz-adv-x="240" 
d="M351 660l-9 -60h-276l9 60h276z" />
    <glyph glyph-name="breve" unicode="&#x2d8;" horiz-adv-x="240" 
d="M66 702h49q1 -38 26.5 -58t65.5 -20q45 0 73 18t44 60h48q-16 -64 -62 -98t-111 -34t-102 34.5t-31 97.5z" />
    <glyph glyph-name="dotaccent" unicode="&#x2d9;" horiz-adv-x="240" 
d="M216 684q22 0 36 -16t11 -38q-4 -23 -22 -38.5t-40 -15.5q-23 0 -36.5 15.5t-9.5 38.5q3 22 21 38t40 16z" />
    <glyph glyph-name="ring" unicode="&#x2da;" horiz-adv-x="240" 
d="M112 645q5 40 38 69.5t75 29.5q43 0 66.5 -29t18.5 -70q-6 -41 -38.5 -70t-74.5 -29t-66.5 29t-18.5 70zM154 645q-4 -24 11 -40.5t38 -16.5q22 0 41.5 16.5t23.5 40.5q3 24 -12 40.5t-37 16.5t-42 -17t-23 -40z" />
    <glyph glyph-name="ogonek" unicode="&#x2db;" horiz-adv-x="240" 
d="M162 -141l15 -41q-46 -39 -97 -39q-38 0 -62 24t-19 61q6 39 38.5 76t71.5 60h51q-31 -20 -59 -51.5t-33 -63.5q-3 -21 7.5 -34t33.5 -12q30 0 53 20z" />
    <glyph glyph-name="tilde" unicode="&#x2dc;" horiz-adv-x="240" 
d="M82 576h-48q12 43 43 73.5t72 30.5q28 0 80 -23q5 -2 13 -6t12.5 -6t12 -3.5t14.5 -1.5q36 0 54 44h48q-31 -104 -107 -104q-29 0 -79 21q-43 19 -63 19q-34 0 -52 -44z" />
    <glyph glyph-name="hungarumlaut" unicode="&#x2dd;" horiz-adv-x="240" 
d="M274 708l-150 -144h-67l121 144h96zM445 708l-164 -144h-68l130 144h102z" />
    <glyph glyph-name="uni03A9" unicode="&#x3a9;" horiz-adv-x="720" 
d="M207 62v3q-51 53 -78 134t-13 180q21 148 120 242.5t228 94.5q130 0 197 -98t48 -234q-15 -103 -66.5 -187t-115.5 -132v-3h151l-9 -62h-240l6 46q70 42 125 126t71 198q10 69 -4.5 132t-59.5 107t-113 44q-100 0 -173 -82t-90 -204q-16 -106 16 -193.5t88 -127.5l-6 -46
h-240l9 62h149z" />
    <glyph glyph-name="uni03BC" unicode="&#x3bc;" 
d="M548 468l-50 -357q-3 -24 -6.5 -61.5t-5.5 -49.5h-74q2 13 4.5 38.5t4.5 38.5h-2q-23 -37 -68.5 -63t-100.5 -26q-57 0 -96 25l-34 -241h-78l98 696h78l-40 -281q-8 -60 14 -93.5t75 -33.5q73 0 116 48t55 132l32 228h78z" />
    <glyph glyph-name="pi" unicode="&#x3c0;" horiz-adv-x="571" 
d="M609 460h-80l-44 -312q-13 -92 -7 -148h-73q-13 32 3 142l45 318h-181q-21 -110 -62 -251.5t-76 -208.5h-74q38 79 78.5 216.5t58.5 243.5q-77 0 -113 -13l-5 51q49 27 148 27h398z" />
    <glyph glyph-name="uni2010" unicode="&#x2010;" horiz-adv-x="333" 
d="M73 204l10 72h245l-10 -72h-245z" />
    <glyph glyph-name="endash" unicode="&#x2013;" horiz-adv-x="500" 
d="M539 276l-10 -72h-500l10 72h500z" />
    <glyph glyph-name="emdash" unicode="&#x2014;" horiz-adv-x="1000" 
d="M29 204l10 72h1000l-10 -72h-1000z" />
    <glyph glyph-name="quoteleft" unicode="&#x2018;" horiz-adv-x="278" 
d="M126 468l116 240h76l-101 -240h-91z" />
    <glyph glyph-name="quoteright" unicode="&#x2019;" horiz-adv-x="278" 
d="M318 708l-116 -240h-76l101 240h91z" />
    <glyph glyph-name="quotesinglbase" unicode="&#x201a;" horiz-adv-x="278" 
d="M232 102l-115 -240h-76l100 240h91z" />
    <glyph glyph-name="quotedblleft" unicode="&#x201c;" horiz-adv-x="519" 
d="M153 468l116 240h76l-101 -240h-91zM340 468l116 240h76l-101 -240h-91z" />
    <glyph glyph-name="quotedblright" unicode="&#x201d;" horiz-adv-x="519" 
d="M345 708l-116 -240h-76l101 240h91zM532 708l-116 -240h-76l101 240h91z" />
    <glyph glyph-name="quotedblbase" unicode="&#x201e;" horiz-adv-x="519" 
d="M259 102l-115 -240h-76l100 240h91zM446 102l-115 -240h-76l100 240h91z" />
    <glyph glyph-name="dagger" unicode="&#x2020;" 
d="M417 708l-29 -203h204l-9 -66h-204l-80 -565h-78l80 565h-204l9 66h204l29 203h78z" />
    <glyph glyph-name="daggerdbl" unicode="&#x2021;" 
d="M417 708l-27 -192h198l-10 -66h-198l-44 -318h198l-10 -66h-198l-27 -192h-78l27 192h-198l10 66h198l44 318h-198l10 66h198l27 192h78z" />
    <glyph glyph-name="bullet" unicode="&#x2022;" horiz-adv-x="500" 
d="M123 354q11 74 70 125.5t132 51.5q74 0 118 -52t34 -125q-11 -74 -70 -125.5t-132 -51.5q-74 0 -118 52t-34 125z" />
    <glyph glyph-name="ellipsis" unicode="&#x2026;" horiz-adv-x="1000" 
d="M183 114q25 0 40 -17.5t12 -42.5q-4 -24 -24.5 -42t-44.5 -18t-39.5 18t-11.5 42q3 25 23 42.5t45 17.5zM516 114q25 0 40 -17.5t12 -42.5q-4 -24 -24.5 -42t-44.5 -18t-39.5 18t-11.5 42q3 25 23 42.5t45 17.5zM849 114q25 0 40 -17.5t12 -42.5q-4 -24 -24.5 -42
t-44.5 -18t-39.5 18t-11.5 42q3 25 23 42.5t45 17.5z" />
    <glyph glyph-name="perthousand" unicode="&#x2030;" horiz-adv-x="1018" 
d="M346 145q9 64 62 110.5t117 46.5t104 -46.5t31 -110.5q-9 -65 -61.5 -111t-117.5 -46t-104.5 46t-30.5 111zM412 145q-5 -36 19 -63.5t60 -27.5t67.5 27.5t35.5 63.5q5 36 -18.5 63.5t-59.5 27.5t-67.5 -27.5t-36.5 -63.5zM706 145q9 64 62 110.5t117 46.5t104 -46.5
t31 -110.5q-9 -65 -61.5 -111t-117.5 -46t-104.5 46t-30.5 111zM772 144q-5 -36 18.5 -63.5t59.5 -27.5t67.5 27.5t36.5 63.5t-18.5 63.5t-59.5 27.5t-67.5 -27.5t-36.5 -63.5zM97 563q9 64 62 110.5t117 46.5t104 -46.5t31 -110.5q-9 -65 -61.5 -111t-117.5 -46t-104.5 46
t-30.5 111zM163 563q-5 -36 18.5 -63.5t59.5 -27.5t67.5 27.5t36.5 63.5t-18.5 63.5t-59.5 27.5t-67.5 -27.5t-36.5 -63.5zM81 0l548 740l51 -32l-548 -740z" />
    <glyph glyph-name="guilsinglleft" unicode="&#x2039;" horiz-adv-x="314" 
d="M315 418l-142 -178l92 -178l-60 -36l-113 214l173 214z" />
    <glyph glyph-name="guilsinglright" unicode="&#x203a;" horiz-adv-x="314" 
d="M67 62l142 178l-92 178l60 36l113 -214l-173 -214z" />
    <glyph glyph-name="fraction" unicode="&#x2044;" horiz-adv-x="167" 
d="M-166 0l548 740l51 -32l-548 -740z" />
    <glyph glyph-name="Euro" unicode="&#x20ac;" 
d="M621 684l-31 -70q-43 37 -123 37q-68 0 -123 -44t-88 -128h277l-23 -59h-273q-11 -45 -16 -77q-2 -19 -6 -55h242l-24 -57h-219q6 -176 145 -176q76 0 134 62l40 -45q-31 -37 -82.5 -60.5t-107.5 -23.5q-101 0 -156 62t-59 181h-73l26 57h48q4 38 7 58q4 36 14 74h-66
l27 59h58q43 116 125.5 178.5t183.5 62.5q41 0 81.5 -10.5t61.5 -25.5z" />
    <glyph glyph-name="afii61289" unicode="&#x2113;" horiz-adv-x="485" 
d="M447 151l32 -32q-84 -126 -204 -126q-81 0 -114.5 52.5t-25.5 134.5l2 13q-9 -6 -30.5 -22.5t-33.5 -24.5l-17 44q73 55 89 69l39 277q18 127 70.5 184.5t117.5 57.5q61 0 86 -46t15 -118q-24 -167 -258 -370l-4 -34q-11 -79 14.5 -118t72.5 -39q43 0 82.5 29t66.5 69z
M257 541l-31 -222q178 170 195 294q15 108 -57 108q-33 0 -63.5 -43.5t-43.5 -136.5z" />
    <glyph glyph-name="trademark" unicode="&#x2122;" horiz-adv-x="990" 
d="M236 296l48 346h-130l10 66h326l-10 -66h-130l-48 -346h-66zM515 296l58 412h105l79 -313l167 313h102l-58 -412h-66l48 346h-2l-184 -346h-45l-88 346h-2l-48 -346h-66z" />
    <glyph glyph-name="Omega" unicode="&#x2126;" horiz-adv-x="720" 
d="M207 62v3q-51 53 -78 134t-13 180q21 148 120 242.5t228 94.5q130 0 197 -98t48 -234q-15 -103 -66.5 -187t-115.5 -132v-3h151l-9 -62h-240l6 46q70 42 125 126t71 198q10 69 -4.5 132t-59.5 107t-113 44q-100 0 -173 -82t-90 -204q-16 -106 16 -193.5t88 -127.5l-6 -46
h-240l9 62h149z" />
    <glyph glyph-name="estimated" unicode="&#x212e;" horiz-adv-x="984" 
d="M949 344h-659q-5 0 -5 -5v-199q0 -12 9 -23q105 -108 249 -108q77 0 145 32.5t117 88.5h58q-55 -65 -139.5 -103t-181.5 -38q-168 0 -287 107t-119 258t119 258.5t287 107.5q169 0 288 -107t119 -259v-10zM799 370v200q0 14 -9 24q-106 104 -247 104q-143 0 -248 -107
q-10 -10 -10 -25v-196q0 -7 5 -7h505q4 0 4 7z" />
    <glyph glyph-name="partialdiff" unicode="&#x2202;" horiz-adv-x="547" 
d="M198 680l-19 55q78 57 175 57q105 0 165.5 -99t34.5 -283q-27 -186 -111 -302t-209 -116q-92 0 -132.5 69.5t-26.5 163.5q16 115 88.5 186.5t160.5 71.5q61 0 99.5 -31.5t50.5 -64.5h1q3 10 9 44q18 131 -25.5 214.5t-121.5 83.5q-73 0 -139 -49zM249 55h1q68 0 124 75
t82 182q-7 40 -42 75t-88 35q-61 0 -113 -58t-63 -138q-11 -75 16 -123t83 -48z" />
    <glyph glyph-name="uni2206" unicode="&#x2206;" horiz-adv-x="648" 
d="M31 0l7 52l346 672h87l152 -672l-7 -52h-585zM117 62h427l-91 386q-4 26 -20 95t-20 93h-4q-8 -22 -41.5 -88t-41.5 -84z" />
    <glyph glyph-name="product" unicode="&#x220f;" horiz-adv-x="798" 
d="M772 636h-109v-733h-75v733h-279v-733h-74v733h-110v69h647v-69z" />
    <glyph glyph-name="summation" unicode="&#x2211;" horiz-adv-x="652" 
d="M631 -97h-509v50l269 350l-257 349v53h481v-66h-376v-3l239 -322l-259 -336v-3h412v-72z" />
    <glyph glyph-name="minus" unicode="&#x2212;" horiz-adv-x="666" 
d="M119 336h522l-9 -66h-522z" />
    <glyph glyph-name="uni2215" unicode="&#x2215;" horiz-adv-x="167" 
d="M-166 0l548 740l51 -32l-548 -740z" />
    <glyph glyph-name="uni2219" unicode="&#x2219;" horiz-adv-x="278" 
d="M191 369q25 0 40 -17.5t11 -42.5q-3 -24 -23.5 -42t-44.5 -18t-39.5 18t-12.5 42q4 25 24 42.5t45 17.5z" />
    <glyph glyph-name="radical" unicode="&#x221a;" horiz-adv-x="673" 
d="M674 838l-222 -989h-67l-160 468l-74 -28l-16 47l138 53l127 -375q12 -48 17 -73h2q6 38 13 73l186 824h56z" />
    <glyph glyph-name="infinity" unicode="&#x221e;" horiz-adv-x="842" 
d="M791 293v-1q0 -70 -45.5 -114.5t-107.5 -44.5q-45 0 -87 28t-97 91q-50 -58 -92.5 -88.5t-97.5 -30.5q-62 0 -106 45t-44 111q0 69 44.5 114t112.5 45q52 0 95 -31t92 -89q28 31 41 44.5t38.5 35.5t51.5 31t56 9q65 0 105.5 -43t40.5 -112zM271 180h1q13 0 26 3t26 11
t22 13.5t23.5 19.5t19.5 19t20 21.5t18 19.5q-19 24 -27.5 34t-27.5 29.5t-32.5 28t-33.5 16t-41 7.5q-46 0 -73.5 -33t-26.5 -81q0 -46 29.5 -77t76.5 -31zM640 402h-1q-19 0 -38 -7t-37 -22t-30 -26t-29 -30.5t-22 -24.5q55 -62 88 -87t71 -25q45 0 72 33t27 76
q0 52 -28.5 82.5t-72.5 30.5z" />
    <glyph glyph-name="integral" unicode="&#x222b;" horiz-adv-x="460" 
d="M444 848l-13 -53q-13 10 -37 10q-33 0 -50 -24q-34 -39 -34 -180q0 -78 6.5 -251t6.5 -256q0 -140 -42 -204q-32 -53 -100 -53q-37 0 -66 17l13 55q27 -12 46 -12q29 0 46 23q34 44 34 174q0 84 -6.5 259.5t-6.5 254.5q0 84 12 134t41 80q37 40 95 40q29 0 55 -14z" />
    <glyph glyph-name="approxequal" unicode="&#x2248;" horiz-adv-x="625" 
d="M547 434l31 -27q-48 -95 -129 -95q-28 0 -51.5 9t-65.5 33q-59 34 -94 34q-31 0 -54 -19.5t-45 -55.5l-32 27q23 45 59 70.5t79 25.5q17 0 35 -5t28 -9.5t28 -14.5t21 -12q2 -1 12.5 -7t12.5 -7l11 -5.5t12 -5.5t10.5 -4t12 -3.5t11 -1.5t13.5 -1q29 0 51 18t44 56z
M547 263l31 -27q-48 -95 -129 -95q-28 0 -51.5 9t-65.5 33q-59 34 -93 34q-32 0 -54.5 -19.5t-45.5 -55.5l-32 27q23 45 59 70.5t79 25.5q14 0 27 -2.5t26.5 -8t20.5 -9t21.5 -12t16.5 -9.5q3 -2 15.5 -8.5t16 -8.5t14 -7t16.5 -6.5t15 -3t18 -1.5q29 0 51 18t44 56z" />
    <glyph glyph-name="notequal" unicode="&#x2260;" horiz-adv-x="637" 
d="M474 508l-45 -99h157v-49h-176l-68 -147h244v-49h-264l-54 -118l-39 18l46 100h-150v49h171l66 147h-237v49h257l53 116z" />
    <glyph glyph-name="lessequal" unicode="&#x2264;" horiz-adv-x="648" 
d="M594 98l-452 226v52l452 226v-59l-400 -191v-2l400 -193v-59zM597 6h-461v51h461v-51z" />
    <glyph glyph-name="greaterequal" unicode="&#x2265;" horiz-adv-x="648" 
d="M143 602l452 -226v-52l-452 -226v59l399 192v2l-399 192v59zM596 6h-459v51h459v-51z" />
    <glyph glyph-name="lozenge" unicode="&#x25ca;" horiz-adv-x="674" 
d="M620 352l-203 -398h-61l-200 398l202 398h62zM550 350l-142 283q-9 18 -19 53h-3q-6 -23 -19 -53l-142 -279l144 -285q15 -36 17 -51h4q7 31 18 51z" />
    <glyph glyph-name="fi" unicode="&#xfb01;" horiz-adv-x="537" 
d="M372 468l-9 -66h-114l-57 -402h-78l57 402h-102l9 66h102l15 105q27 195 193 195q37 0 58 -12l-21 -70q-27 10 -51 10q-55 0 -74 -33t-30 -107l-12 -88h114zM378 0l66 468h78l-66 -468h-78zM451 651q4 23 23 40t43 17t38 -17t10 -40q-3 -25 -21.5 -41t-43.5 -16t-38.5 16
t-10.5 41z" />
    <glyph glyph-name="fl" unicode="&#xfb02;" horiz-adv-x="537" 
d="M114 0l57 402h-102l9 66h102l15 105q27 195 193 195q37 0 58 -12l-21 -70q-27 10 -51 10q-55 0 -74 -33t-30 -107l-12 -88h114l-9 -66h-114l-57 -402h-78zM378 0l106 756h78l-106 -756h-78z" />
    <glyph glyph-name="a.superior" horiz-adv-x="337" 
d="M384 601l-18 -128q-1 -7 -1.5 -21.5t-0.5 -21.5h-61q2 28 4 45h-2q-32 -51 -107 -51q-48 0 -73.5 22.5t-19.5 65.5q5 33 25.5 54t54.5 29t58 10t59 2h23l2 14q3 16 -14.5 30.5t-51.5 14.5q-28 0 -54.5 -9.5t-39.5 -21.5l-25 42q52 43 126 43q70 0 97.5 -29.5t18.5 -89.5z
M319 559h-48q-93 0 -100 -46q-2 -16 12.5 -25.5t39.5 -9.5q38 0 64 20t29 44z" />
    <glyph glyph-name="o.superior" horiz-adv-x="386" 
d="M111 573q9 65 60.5 106t122.5 41t111.5 -41t31.5 -106q-10 -67 -61.5 -108t-122.5 -41t-111.5 41t-30.5 108zM177 573q-5 -39 17.5 -67t65.5 -28t74.5 28.5t36.5 66.5q5 37 -18 65t-66 28t-74 -28t-36 -65z" />
    <glyph glyph-name="one.superior" horiz-adv-x="361" 
d="M214 289l49 352h-2l-90 -66l-27 46l137 93h58l-59 -425h-66z" />
    <glyph glyph-name="two.superior" horiz-adv-x="361" 
d="M73 289l8 58l189 151q36 29 52.5 48.5t20.5 48.5q4 32 -14 51.5t-48 19.5q-32 0 -57.5 -18t-35.5 -49l-62 5q17 58 59.5 87t100.5 29q61 0 96.5 -32t26.5 -93q-5 -32 -23 -60.5t-36 -44t-51 -41.5l-135 -104v-2h213l-7 -54h-297z" />
    <glyph glyph-name="three.superior" horiz-adv-x="361" 
d="M208 484l8 54h17q92 0 101 69q4 30 -13 44.5t-49 14.5q-61 0 -87 -42l-52 25q45 71 146 71q58 0 93.5 -29.5t28.5 -81.5q-5 -33 -31 -60t-62 -37v-2q42 -6 63 -35.5t16 -70.5q-8 -57 -56 -89t-113 -32q-118 0 -134 92l57 23q5 -24 26 -42.5t58 -18.5q36 0 64 18.5
t32 51.5q6 43 -23 60t-74 17h-16z" />
    </font>
</defs>
</svg>
